<svg width="705" height="534" viewBox="0 0 705 534" fill="none" xmlns="http://www.w3.org/2000/svg">
<path d="M697.165 436.495C692.687 465.851 680.551 493.902 663.951 519.355C660.911 524.02 657.717 528.601 654.395 533.085H56.2505C53.2414 528.667 50.3304 524.076 47.5337 519.355C30.7146 490.95 18.0655 457.827 13.3411 429.557C5.46453 382.407 16.1511 339.959 48.3112 303.056C66.2044 282.525 88.3344 272.255 112.605 260.971C74.3006 148.83 192.008 49.8479 295.784 17.8602C438.515 -26.1347 668.706 5.10158 676.241 179.815C678.145 223.898 669.519 264.754 639.105 299.26C639.716 299.103 640.225 298.122 640.692 297.723C688.511 323.508 704.608 387.687 697.165 436.495Z" fill="#EADAC3"/>
<path d="M704.168 519.354H0V533.084H704.168V519.354Z" fill="#545454"/>
<path d="M201.246 229.556L175.427 233.663C179.725 242.901 178.205 253.095 176.089 262.315C185.056 262.61 194.172 266.274 202.905 264.075C207.215 253.454 205.086 240.272 201.246 229.556Z" fill="#92A32B"/>
<path d="M202.42 226.622L176.601 230.729C180.899 239.966 179.378 250.16 177.263 259.38C186.229 259.676 195.345 263.34 204.078 261.14C208.388 250.519 206.259 237.338 202.42 226.622Z" fill="#BEE41B"/>
<path d="M183.278 238.33C188.232 236.969 193.267 236.307 198.403 236.294C199.033 236.292 199.033 235.315 198.403 235.316C193.183 235.329 188.053 236.004 183.018 237.387C182.41 237.554 182.669 238.497 183.278 238.33Z" fill="#92A32B"/>
<path d="M184.451 242.144C190.586 240.413 196.93 239.771 203.226 238.917C203.849 238.832 203.583 237.89 202.966 237.973C196.67 238.827 190.326 239.47 184.191 241.2C183.585 241.371 183.843 242.315 184.451 242.144Z" fill="#92A32B"/>
<path d="M183.441 245.975C189.33 245.621 194.863 243.371 200.586 242.143C201.203 242.011 200.941 241.068 200.326 241.201C194.694 242.409 189.235 244.649 183.441 244.997C182.815 245.035 182.811 246.013 183.441 245.975Z" fill="#92A32B"/>
<path d="M186.212 248.891C192.263 247.379 198.332 245.935 204.4 244.49C205.013 244.344 204.754 243.401 204.14 243.547C198.073 244.992 192.004 246.436 185.952 247.948C185.34 248.101 185.599 249.044 186.212 248.891Z" fill="#92A32B"/>
<path d="M485.309 64.8086L508.723 72.6197C503.293 80.5596 503.136 90.2891 503.683 99.2023C495.286 98.0935 486.23 100.099 478.436 96.7021C476.061 86.1437 480.079 74.196 485.309 64.8086Z" fill="#92A32B"/>
<path d="M484.669 61.8945L508.082 69.7063C502.652 77.6462 502.494 87.3757 503.042 96.2889C494.645 95.1801 485.589 97.1846 477.796 93.7887C475.422 83.2303 479.439 71.2826 484.669 61.8945Z" fill="#FDE427"/>
<path d="M500.689 75.754C496.285 73.7221 491.698 72.3281 486.917 71.5225C486.33 71.4236 486.481 70.5126 487.068 70.6121C491.928 71.4303 496.601 72.8504 501.077 74.9157C501.617 75.1649 501.232 76.0038 500.689 75.754Z" fill="#92A32B"/>
<path d="M499.008 79.125C493.561 76.5661 487.752 74.9883 482.019 73.2209C481.453 73.0459 481.846 72.2103 482.407 72.3826C488.139 74.1501 493.949 75.7278 499.395 78.2867C499.934 78.5392 499.548 79.3781 499.008 79.125Z" fill="#92A32B"/>
<path d="M499.358 82.849C493.928 81.6106 489.121 78.6609 483.981 76.6343C483.427 76.4159 483.816 75.5783 484.368 75.7961C489.427 77.7906 494.166 80.7202 499.509 81.9379C500.087 82.0702 499.938 82.9813 499.358 82.849Z" fill="#92A32B"/>
<path d="M496.327 85.1375C490.924 82.7956 485.495 80.5139 480.067 78.2315C479.518 78.0004 479.906 77.1628 480.455 77.3932C485.883 79.6756 491.312 81.9574 496.715 84.2992C497.261 84.5357 496.874 85.3746 496.327 85.1375Z" fill="#92A32B"/>
<path d="M182.504 112.875L156.684 116.983C160.983 126.22 159.462 136.414 157.347 145.634C166.313 145.93 175.43 149.594 184.163 147.395C188.472 136.772 186.343 123.591 182.504 112.875Z" fill="#16B1B5"/>
<path d="M183.678 109.94L157.858 114.048C162.157 123.286 160.636 133.48 158.52 142.699C167.487 142.995 176.603 146.659 185.335 144.46C185.106 134.448 185.889 121.539 183.678 109.94Z" fill="#46F2F2"/>
<path d="M165.961 123.214C169.773 121.853 173.649 121.191 177.602 121.178C178.088 121.176 178.088 120.198 177.602 120.2C173.584 120.213 169.636 120.888 165.761 122.27C165.293 122.437 165.492 123.381 165.961 123.214Z" fill="#16B1B5"/>
<path d="M166.864 127.027C171.586 125.297 176.468 124.654 181.314 123.8C181.794 123.716 181.589 122.773 181.115 122.857C176.269 123.711 171.385 124.354 166.664 126.084C166.198 126.255 166.396 127.198 166.864 127.027Z" fill="#16B1B5"/>
<path d="M166.087 130.858C170.619 130.505 174.879 128.255 179.283 127.027C179.757 126.895 179.556 125.952 179.083 126.084C174.748 127.292 170.546 129.533 166.087 129.88C165.605 129.918 165.601 130.896 166.087 130.858Z" fill="#16B1B5"/>
<path d="M168.219 133.774C172.877 132.263 177.548 130.819 182.218 129.374C182.69 129.228 182.49 128.285 182.018 128.431C177.348 129.876 172.677 131.32 168.019 132.831C167.548 132.984 167.748 133.927 168.219 133.774Z" fill="#16B1B5"/>
<path d="M240.724 113.388L214.904 117.495C219.203 126.733 217.682 136.927 215.566 146.147C224.533 146.443 233.65 150.106 242.382 147.907C246.692 137.286 244.563 124.105 240.724 113.388Z" fill="#92A32B"/>
<path d="M241.897 110.454L216.078 114.561C220.376 123.798 218.855 133.993 216.74 143.213C225.707 143.509 234.824 147.172 243.556 144.973C247.865 134.352 245.737 121.17 241.897 110.454Z" fill="#BEE41B"/>
<path d="M222.755 122.162C227.709 120.802 232.744 120.14 237.88 120.126C238.511 120.125 238.511 119.147 237.88 119.148C232.66 119.162 227.531 119.836 222.495 121.22C221.889 121.386 222.146 122.33 222.755 122.162Z" fill="#92A32B"/>
<path d="M223.929 125.976C230.063 124.245 236.407 123.602 242.703 122.749C243.326 122.665 243.06 121.722 242.444 121.806C236.147 122.66 229.803 123.302 223.669 125.032C223.063 125.204 223.321 126.147 223.929 125.976Z" fill="#92A32B"/>
<path d="M222.919 129.807C228.807 129.454 234.341 127.203 240.063 125.976C240.68 125.843 240.418 124.901 239.803 125.033C234.172 126.241 228.712 128.481 222.919 128.829C222.292 128.867 222.289 129.845 222.919 129.807Z" fill="#92A32B"/>
<path d="M225.689 132.723C231.741 131.212 237.809 129.767 243.877 128.323C244.49 128.176 244.23 127.234 243.617 127.379C237.549 128.824 231.48 130.268 225.429 131.78C224.818 131.933 225.077 132.876 225.689 132.723Z" fill="#92A32B"/>
<path d="M151.674 202.913L129.376 204.087C132.307 213.461 128.638 224.373 132.412 233.925C138.593 233.173 146.747 233.648 152.759 231.564C153.218 222.922 154.485 210.923 151.674 202.913Z" fill="#D3B81A"/>
<path d="M153.435 200.566L131.136 201.74C134.068 211.114 130.399 222.027 134.173 231.578C140.354 230.825 148.508 231.301 154.52 229.217C154.978 220.575 156.245 208.575 153.435 200.566Z" fill="#FDE427"/>
<path d="M135.679 211.043C136.98 211.597 138.846 211.023 140.161 210.78C142.168 210.41 144.164 209.883 146.193 209.643C146.812 209.571 146.819 208.592 146.193 208.666C144.401 208.878 142.634 209.3 140.865 209.651C139.951 209.833 139.036 210.003 138.114 210.136C137.583 210.212 136.695 210.42 136.173 210.199C135.6 209.955 135.101 210.797 135.679 211.043Z" fill="#D3B81A"/>
<path d="M134.459 214.63C139.986 213.996 145.375 212.576 150.724 211.092C151.331 210.924 151.073 209.98 150.464 210.149C145.203 211.608 139.895 213.029 134.459 213.652C133.84 213.723 133.833 214.702 134.459 214.63Z" fill="#D3B81A"/>
<path d="M136.219 217.27C139.251 216.864 142.174 215.872 145.151 215.2C145.766 215.061 145.505 214.118 144.891 214.256C142.005 214.909 139.16 215.898 136.22 216.292C135.604 216.375 135.596 217.354 136.219 217.27Z" fill="#D3B81A"/>
<path d="M136.97 218.788C137.353 219.399 138.259 219.324 138.878 219.281C140.167 219.192 141.45 218.901 142.707 218.615C145.408 218 148.094 217.245 150.724 216.373C151.32 216.175 151.065 215.231 150.464 215.43C148.255 216.162 146.006 216.792 143.749 217.359C142.468 217.681 141.178 217.974 139.874 218.183C139.58 218.23 137.954 218.516 137.815 218.294C137.481 217.762 136.635 218.252 136.97 218.788Z" fill="#D3B81A"/>
<path d="M137.851 219.762C137.549 220.235 137.259 220.283 137.197 220.889C137.171 221.153 137.44 221.379 137.686 221.378C140.947 221.356 144.163 220.789 147.203 219.599C147.784 219.372 147.531 218.427 146.943 218.656C143.98 219.815 140.865 220.378 137.686 220.399C137.849 220.562 138.012 220.725 138.175 220.888C138.189 220.752 138.611 220.386 138.695 220.255C139.035 219.722 138.188 219.231 137.851 219.762Z" fill="#D3B81A"/>
<path d="M140.959 222.484C142.584 223.57 144.942 223.15 146.78 223.138C147.41 223.133 147.41 222.155 146.78 222.16C145.138 222.171 142.898 222.605 141.453 221.64C140.927 221.288 140.438 222.136 140.959 222.484Z" fill="#D3B81A"/>
<path d="M582.608 156.454L560.31 157.627C563.242 167.002 559.573 177.914 563.346 187.465C569.527 186.713 577.681 187.189 583.693 185.105C584.153 176.463 585.42 164.464 582.608 156.454Z" fill="#D3B81A"/>
<path d="M584.37 154.106L562.071 155.28C565.003 164.655 561.334 175.567 565.107 185.118C571.289 184.365 579.442 184.842 585.455 182.758C585.913 174.116 587.181 162.117 584.37 154.106Z" fill="#FDE427"/>
<path d="M566.614 164.584C567.915 165.138 569.781 164.564 571.096 164.321C573.103 163.95 575.099 163.424 577.128 163.184C577.747 163.111 577.754 162.132 577.128 162.206C575.336 162.419 573.569 162.841 571.8 163.193C570.886 163.374 569.971 163.545 569.05 163.677C568.518 163.753 567.63 163.962 567.108 163.74C566.534 163.496 566.036 164.338 566.614 164.584Z" fill="#D3B81A"/>
<path d="M565.394 168.171C570.92 167.538 576.31 166.117 581.659 164.634C582.266 164.465 582.008 163.522 581.399 163.691C576.139 165.15 570.83 166.57 565.394 167.193C564.775 167.264 564.768 168.243 565.394 168.171Z" fill="#D3B81A"/>
<path d="M567.155 170.811C570.186 170.405 573.109 169.413 576.085 168.74C576.7 168.601 576.439 167.659 575.825 167.797C572.938 168.45 570.094 169.439 567.154 169.833C566.539 169.916 566.531 170.895 567.155 170.811Z" fill="#D3B81A"/>
<path d="M567.905 172.329C568.288 172.939 569.194 172.865 569.813 172.822C571.103 172.733 572.385 172.442 573.642 172.155C576.343 171.54 579.029 170.785 581.659 169.913C582.254 169.716 582 168.771 581.399 168.97C579.189 169.702 576.941 170.332 574.684 170.899C573.403 171.221 572.113 171.515 570.809 171.724C570.514 171.771 568.889 172.056 568.75 171.835C568.416 171.303 567.57 171.793 567.905 172.329Z" fill="#D3B81A"/>
<path d="M568.786 173.303C568.484 173.776 568.194 173.824 568.132 174.43C568.106 174.694 568.376 174.921 568.621 174.919C571.882 174.897 575.099 174.33 578.138 173.141C578.719 172.914 578.466 171.969 577.879 172.198C574.916 173.357 571.801 173.92 568.621 173.941C568.784 174.104 568.947 174.267 569.11 174.43C569.124 174.294 569.547 173.928 569.631 173.797C569.97 173.263 569.124 172.773 568.786 173.303Z" fill="#D3B81A"/>
<path d="M571.894 176.025C573.52 177.111 575.878 176.691 577.715 176.678C578.345 176.674 578.345 175.696 577.715 175.7C576.073 175.712 573.833 176.146 572.387 175.18C571.862 174.829 571.373 175.677 571.894 176.025Z" fill="#D3B81A"/>
<path d="M349.326 168.473L327.027 169.646C329.959 179.021 326.29 189.933 330.063 199.484C336.245 198.732 344.398 199.208 350.411 197.124C350.869 188.481 352.137 176.483 349.326 168.473Z" fill="#D3B81A"/>
<path d="M351.086 166.125L328.787 167.299C331.72 176.674 328.05 187.586 331.824 197.137C338.005 196.385 346.159 196.861 352.171 194.777C352.63 186.134 353.897 174.136 351.086 166.125Z" fill="#FDE427"/>
<path d="M333.331 176.603C334.632 177.157 336.498 176.582 337.813 176.34C339.82 175.969 341.816 175.443 343.845 175.203C344.464 175.13 344.471 174.151 343.845 174.225C342.052 174.438 340.286 174.86 338.517 175.211C337.603 175.392 336.687 175.563 335.766 175.695C335.235 175.772 334.347 175.981 333.825 175.758C333.251 175.514 332.752 176.357 333.331 176.603Z" fill="#D3B81A"/>
<path d="M332.111 180.19C337.638 179.556 343.027 178.136 348.376 176.652C348.983 176.484 348.725 175.54 348.116 175.709C342.855 177.169 337.547 178.589 332.111 179.212C331.492 179.283 331.485 180.261 332.111 180.19Z" fill="#D3B81A"/>
<path d="M333.871 182.83C336.902 182.423 339.825 181.432 342.802 180.759C343.417 180.62 343.156 179.677 342.542 179.816C339.656 180.468 336.811 181.457 333.871 181.851C333.255 181.934 333.247 182.914 333.871 182.83Z" fill="#D3B81A"/>
<path d="M334.622 184.348C335.005 184.958 335.911 184.883 336.53 184.841C337.819 184.752 339.102 184.461 340.358 184.175C343.06 183.56 345.746 182.804 348.376 181.932C348.972 181.735 348.717 180.79 348.116 180.989C345.906 181.722 343.657 182.351 341.4 182.918C340.12 183.24 338.83 183.534 337.526 183.743C337.232 183.79 335.606 184.076 335.467 183.854C335.133 183.321 334.287 183.812 334.622 184.348Z" fill="#D3B81A"/>
<path d="M335.502 185.321C335.201 185.794 334.911 185.842 334.849 186.448C334.822 186.713 335.092 186.938 335.338 186.937C338.598 186.915 341.815 186.348 344.855 185.16C345.436 184.932 345.184 183.987 344.595 184.216C341.632 185.375 338.517 185.938 335.338 185.959C335.501 186.122 335.664 186.285 335.827 186.448C335.84 186.312 336.263 185.946 336.347 185.815C336.687 185.281 335.84 184.791 335.502 185.321Z" fill="#D3B81A"/>
<path d="M338.612 188.044C340.237 189.13 342.595 188.71 344.432 188.697C345.063 188.693 345.063 187.714 344.432 187.719C342.79 187.73 340.55 188.164 339.105 187.199C338.579 186.848 338.09 187.695 338.612 188.044Z" fill="#D3B81A"/>
<path d="M205.134 206.97C202.17 198.932 199.526 190.638 197.467 182.001C192.569 188.226 174.41 189.086 174.41 189.086C178.342 197.665 182.089 208.682 182.093 217.905C189.86 215.16 197.873 211.094 205.134 206.97Z" fill="#AA3C6E"/>
<path d="M205.67 204.401C202.706 196.363 200.062 188.069 198.003 179.432C193.105 185.657 174.947 186.517 174.947 186.517C178.878 195.096 182.625 206.114 182.629 215.336C190.396 212.591 198.409 208.525 205.67 204.401Z" fill="#FF5593"/>
<path d="M184.334 192.755C186.142 193.418 188.264 192.632 189.946 191.95C192.001 191.116 193.942 190.016 195.832 188.862C196.369 188.534 195.88 187.687 195.34 188.016C193.71 189.011 192.046 189.948 190.306 190.739C188.671 191.482 186.402 192.475 184.595 191.813C184.002 191.595 183.746 192.539 184.334 192.755Z" fill="#AA3C6E"/>
<path d="M185.758 196.677C187.877 195.752 190.157 195.247 192.295 194.364C192.869 194.127 192.627 193.179 192.045 193.418C189.826 194.334 187.467 194.871 185.266 195.832C184.69 196.084 185.186 196.927 185.758 196.677Z" fill="#AA3C6E"/>
<path d="M185.397 197.935C187.92 198.997 190.844 197.467 193.177 196.559C193.758 196.333 193.515 195.384 192.927 195.613C190.769 196.454 187.989 197.973 185.659 196.993C185.078 196.749 184.824 197.695 185.397 197.935Z" fill="#AA3C6E"/>
<path d="M184.344 202.815C188.241 200.54 192.666 199.414 196.821 197.721C197.397 197.486 197.154 196.538 196.571 196.775C192.336 198.5 187.824 199.651 183.851 201.97C183.308 202.287 183.798 203.134 184.344 202.815Z" fill="#AA3C6E"/>
<path d="M187.031 205.461C189.744 204.415 192.459 203.375 195.079 202.106C195.646 201.831 195.152 200.987 194.587 201.26C192.046 202.492 189.413 203.5 186.782 204.515C186.2 204.74 186.443 205.688 187.031 205.461Z" fill="#AA3C6E"/>
<path d="M188.035 207.172C189.003 207.588 190.353 206.785 191.215 206.398C192.72 205.721 194.183 204.931 195.603 204.092C196.145 203.772 195.655 202.926 195.111 203.247C193.963 203.925 192.787 204.554 191.592 205.142C190.958 205.455 190.314 205.749 189.654 206.003C189.427 206.09 188.703 206.403 188.528 206.328C187.955 206.081 187.456 206.924 188.035 207.172Z" fill="#AA3C6E"/>
<path opacity="0.6" d="M200.911 129.753C197.947 121.714 195.303 113.421 193.244 104.784C188.346 111.009 170.188 111.869 170.188 111.869C174.119 120.448 177.866 131.466 177.87 140.688C185.637 137.943 193.65 133.876 200.911 129.753Z" fill="#16B1B5"/>
<path d="M201.447 127.184C198.483 119.145 195.838 110.852 193.78 102.215C177.014 107.273 170.188 111.869 170.188 111.869C174.119 120.447 178.401 128.896 178.405 138.118C186.172 135.373 194.185 131.307 201.447 127.184Z" fill="#FF5593"/>
<path d="M180.11 115.537C181.919 116.201 184.04 115.415 185.722 114.732C187.778 113.899 189.719 112.799 191.608 111.644C192.145 111.316 191.656 110.47 191.116 110.799C189.487 111.794 187.822 112.731 186.082 113.521C184.447 114.265 182.178 115.257 180.371 114.595C179.778 114.377 179.523 115.322 180.11 115.537Z" fill="#AA3C6E"/>
<path d="M181.535 119.46C183.654 118.534 185.934 118.029 188.071 117.146C188.645 116.909 188.403 115.961 187.822 116.201C185.603 117.116 183.243 117.653 181.043 118.615C180.466 118.866 180.963 119.71 181.535 119.46Z" fill="#AA3C6E"/>
<path d="M181.173 120.718C183.697 121.779 186.621 120.25 188.954 119.341C189.535 119.115 189.291 118.167 188.704 118.396C186.545 119.237 183.766 120.755 181.435 119.776C180.854 119.531 180.601 120.478 181.173 120.718Z" fill="#AA3C6E"/>
<path d="M180.12 125.598C184.018 123.322 188.443 122.196 192.598 120.504C193.174 120.269 192.931 119.321 192.348 119.558C188.114 121.284 183.601 122.433 179.628 124.752C179.085 125.07 179.574 125.916 180.12 125.598Z" fill="#AA3C6E"/>
<path d="M182.808 128.244C185.521 127.197 188.236 126.158 190.856 124.889C191.423 124.614 190.929 123.77 190.364 124.043C187.823 125.274 185.191 126.283 182.558 127.298C181.977 127.523 182.22 128.471 182.808 128.244Z" fill="#AA3C6E"/>
<path d="M183.812 129.955C184.78 130.37 186.13 129.568 186.993 129.18C188.498 128.503 189.96 127.713 191.38 126.874C191.922 126.554 191.432 125.707 190.888 126.029C189.74 126.706 188.564 127.335 187.369 127.924C186.735 128.236 186.091 128.531 185.431 128.784C185.204 128.871 184.48 129.185 184.304 129.109C183.732 128.865 183.233 129.706 183.812 129.955Z" fill="#AA3C6E"/>
<path d="M275.014 85.8293C274.2 77.3008 273.759 68.6067 273.971 59.731C267.647 64.5002 249.871 60.6988 249.871 60.6988C251.483 69.9968 252.295 81.6058 249.945 90.5237C258.156 89.8517 266.942 87.9634 275.014 85.8293Z" fill="#AA3C6E"/>
<path d="M276.188 83.4816C275.373 74.9532 274.932 66.2591 275.145 57.3833C268.82 62.1525 251.044 58.3512 251.044 58.3512C252.657 67.6484 253.468 79.2575 251.119 88.176C259.33 87.5041 268.115 85.6164 276.188 83.4816Z" fill="#FF5593"/>
<path d="M258.529 66.7774C260.108 67.8802 262.36 67.6617 264.161 67.4306C266.361 67.1487 268.519 66.5803 270.64 65.9464C271.243 65.7661 270.986 64.8229 270.38 65.0033C268.551 65.5503 266.702 66.0306 264.819 66.3519C263.048 66.6538 260.601 67.0345 259.023 65.9331C258.504 65.571 258.016 66.4193 258.529 66.7774Z" fill="#AA3C6E"/>
<path d="M258.905 70.9334C261.19 70.5794 263.524 70.6722 265.816 70.3643C266.431 70.2814 266.439 69.3029 265.816 69.3864C263.437 69.7063 261.019 69.6222 258.646 69.9902C258.024 70.0871 258.289 71.0296 258.905 70.9334Z" fill="#AA3C6E"/>
<path d="M258.235 72.0576C260.404 73.7275 263.622 72.9941 266.109 72.7115C266.728 72.6407 266.735 71.6621 266.109 71.7336C263.808 71.9961 260.732 72.7556 258.728 71.214C258.229 70.8292 257.743 71.6788 258.235 72.0576Z" fill="#AA3C6E"/>
<path d="M255.972 76.5071C260.321 75.3014 264.887 75.3415 269.337 74.7644C269.953 74.6842 269.961 73.7057 269.337 73.7865C264.802 74.3749 260.146 74.3355 255.713 75.5646C255.105 75.7329 255.363 76.676 255.972 76.5071Z" fill="#AA3C6E"/>
<path d="M257.895 79.7516C260.786 79.4317 263.677 79.1197 266.533 78.5607C267.151 78.4398 266.889 77.4973 266.273 77.6175C263.502 78.1599 260.699 78.4631 257.895 78.7731C257.276 78.8425 257.269 79.8211 257.895 79.7516Z" fill="#AA3C6E"/>
<path d="M258.43 81.6619C259.26 82.3104 260.77 81.8796 261.703 81.724C263.33 81.4535 264.946 81.0627 266.533 80.6138C267.139 80.4422 266.881 79.499 266.273 79.6707C264.991 80.0334 263.693 80.3413 262.387 80.6052C261.694 80.7454 260.997 80.8663 260.294 80.9425C260.052 80.9685 259.272 81.0868 259.122 80.9692C258.631 80.5871 257.934 81.2738 258.43 81.6619Z" fill="#AA3C6E"/>
<path d="M530.574 135.15C531.894 126.685 533.617 118.152 536.018 109.605C528.711 112.662 512.426 104.582 512.426 104.582C511.69 113.989 509.605 125.438 505.123 133.498C513.245 134.878 522.224 135.221 530.574 135.15Z" fill="#16B1B5"/>
<path d="M532.292 133.166C533.612 124.701 535.335 116.168 537.736 107.621C528.097 105.358 514.145 102.598 514.145 102.598C513.408 112.005 511.323 123.455 506.841 131.514C514.963 132.893 523.941 133.237 532.292 133.166Z" fill="#46F2F2"/>
<path d="M516.455 112.404C517.713 113.864 519.948 114.209 521.75 114.431C523.951 114.702 526.182 114.685 528.395 114.595C529.023 114.57 529.008 113.592 528.376 113.617C526.468 113.694 524.558 113.703 522.654 113.549C520.863 113.403 518.398 113.167 517.141 111.709C516.729 111.229 516.046 111.931 516.455 112.404Z" fill="#16B1B5"/>
<path d="M518.65 116.733C520.951 116.955 523.19 117.622 525.487 117.891C526.103 117.963 526.353 117.016 525.729 116.943C523.344 116.664 521.022 115.986 518.631 115.755C518.004 115.695 518.028 116.674 518.65 116.733Z" fill="#16B1B5"/>
<path d="M517.723 117.657C519.411 119.811 522.709 119.896 525.19 120.237C525.807 120.322 526.057 119.375 525.432 119.29C523.137 118.975 519.969 118.95 518.409 116.961C518.02 116.464 517.339 117.167 517.723 117.657Z" fill="#16B1B5"/>
<path d="M514.429 121.408C518.942 121.316 523.355 122.483 527.809 123.025C528.426 123.1 528.676 122.153 528.051 122.078C523.511 121.526 519.01 120.336 514.41 120.431C513.78 120.443 513.797 121.421 514.429 121.408Z" fill="#16B1B5"/>
<path d="M515.49 125.027C518.369 125.432 521.247 125.844 524.154 126.009C524.783 126.044 524.762 125.067 524.135 125.031C521.316 124.872 518.525 124.472 515.731 124.079C515.115 123.993 514.866 124.939 515.49 125.027Z" fill="#16B1B5"/>
<path d="M515.536 127.011C516.18 127.844 517.749 127.8 518.691 127.881C520.335 128.021 521.997 128.042 523.645 128C524.275 127.984 524.258 127.006 523.627 127.022C522.295 127.056 520.961 127.033 519.63 126.967C518.924 126.931 518.218 126.876 517.519 126.775C517.278 126.741 516.493 126.663 516.376 126.512C515.996 126.019 515.15 126.512 515.536 127.011Z" fill="#16B1B5"/>
<g opacity="0.6">
<path d="M338.922 143.839C338.925 143.821 338.928 143.803 338.931 143.785C338.915 143.788 338.899 143.79 338.884 143.793C338.681 144.006 338.693 144.022 338.922 143.839Z" fill="#16B1B5"/>
<path d="M403.94 91.5388C405.122 77.0041 405.285 62.4026 405.731 47.8766C403.184 47.5386 400.599 47.3176 397.997 47.1746C397.913 47.1586 397.827 47.1472 397.739 47.1399C397.614 47.1299 397.49 47.1319 397.368 47.1399C390.839 46.8126 384.216 46.9709 377.824 47.0751C370.159 47.2 361.896 46.8246 354.221 47.5199L344.299 47.3136C344.158 47.2761 344.013 47.2488 343.863 47.2367C343.603 47.2154 343.349 47.2347 343.108 47.2888L335.735 47.1352C340.689 61.0213 340.162 80.6859 340.918 95.3916C341.728 111.165 341.795 128.151 338.931 143.784C348.237 142.018 359.826 146.864 369.715 146.542C378.875 146.244 388.857 144.607 397.418 142.984C397.682 135.472 400.539 127.896 401.585 120.401C402.91 110.895 403.161 101.107 403.94 91.5388Z" fill="#16B1B5"/>
</g>
<path d="M346.29 139.316C346.292 139.298 346.293 139.28 346.295 139.262C346.28 139.266 346.264 139.27 346.248 139.274C346.063 139.502 346.077 139.516 346.29 139.316Z" fill="white"/>
<path d="M406.843 81.9063C406.84 67.3242 405.816 52.7574 405.08 38.2427C395.872 37.7758 386.304 38.8199 377.201 39.7116C369.571 40.459 361.306 40.7556 353.712 42.0728L335.255 43.1909C341.322 56.6282 342.394 76.2708 344.342 90.8669C346.432 106.522 347.878 123.447 346.295 139.261C355.426 136.745 367.371 140.633 377.201 139.509C386.307 138.467 396.123 136.024 404.523 133.711C404.176 126.202 406.408 118.419 406.841 110.863C407.39 101.282 406.845 91.5055 406.843 81.9063Z" fill="white"/>
<path d="M355.806 64.0457C358.332 64.7571 361.163 63.8961 363.574 63.1293C366.743 62.1214 369.773 60.7962 372.965 59.8376C380.739 57.5031 388.738 55.8152 396.896 56.1859C397.797 56.2267 397.793 54.8286 396.896 54.7879C389.143 54.4359 381.529 55.9261 374.107 58.0455C370.913 58.9573 367.87 60.1055 364.76 61.2457C362.214 62.1788 358.909 63.4666 356.178 62.6978C355.309 62.4527 354.94 63.8019 355.806 64.0457Z" fill="#D7E0E0"/>
<path d="M355.905 71.3674C368.423 64.1448 382.999 59.747 397.335 58.158C398.221 58.0598 398.23 56.6604 397.335 56.7599C382.744 58.3771 367.946 62.8063 355.199 70.1605C354.419 70.61 355.123 71.8183 355.905 71.3674Z" fill="#D7E0E0"/>
<path d="M352.387 75.3098C364.295 69.9521 377.666 69.7925 390.044 66.0172C390.904 65.7554 390.537 64.4054 389.672 64.6693C377.163 68.4839 363.718 68.6863 351.681 74.1021C350.86 74.4715 351.571 75.6758 352.387 75.3098Z" fill="#D7E0E0"/>
<path d="M358.377 76.8581C369.396 75.3765 380.416 73.885 391.364 71.9306C392.25 71.7722 391.873 70.425 390.991 70.5826C380.044 72.5371 369.024 74.0293 358.006 75.5108C357.115 75.6297 357.496 76.977 358.377 76.8581Z" fill="#D7E0E0"/>
<path d="M357.566 83.7573C359.352 84.2182 361.269 83.929 363.057 83.6317C365.868 83.1635 368.629 82.3733 371.362 81.5758C376.829 79.9807 382.241 77.9321 387.845 76.8587C388.73 76.689 388.354 75.3417 387.473 75.5107C382.239 76.5133 377.166 78.3816 372.071 79.9079C369.368 80.7174 366.649 81.4876 363.885 82.0587C362.009 82.4461 359.836 82.9003 357.937 82.4094C357.064 82.1829 356.693 83.5322 357.566 83.7573Z" fill="#D7E0E0"/>
<path d="M360.39 89.2022C367.674 89.7212 375.202 87.7828 382.128 85.7275C382.99 85.4717 382.623 84.1224 381.756 84.3796C374.936 86.4028 367.56 88.3152 360.39 87.8035C359.491 87.7401 359.497 89.1388 360.39 89.2022Z" fill="#D7E0E0"/>
<path d="M364.295 94.4183C366.732 96.9519 371.823 95.5118 374.712 94.787C378.656 93.7971 382.603 92.3857 386.252 90.5856C387.061 90.1868 386.353 88.9812 385.547 89.3786C382.293 90.983 378.806 92.2014 375.317 93.1793C373.355 93.729 371.344 94.1779 369.308 94.3201C368.004 94.411 366.264 94.4497 365.283 93.4304C364.657 92.7792 363.669 93.7684 364.295 94.4183Z" fill="#D7E0E0"/>
<path d="M372.08 101.99C375.517 103.026 379.193 102.604 382.687 102.117C386.825 101.541 390.94 100.572 395.136 100.536C396.037 100.528 396.038 99.1302 395.136 99.1382C391.41 99.1703 387.725 99.9211 384.059 100.506C380.291 101.107 376.183 101.767 372.452 100.642C371.586 100.381 371.219 101.731 372.08 101.99Z" fill="#D7E0E0"/>
<path d="M357.058 111.845C369.236 108.248 382.366 110.012 394.443 105.932C395.292 105.645 394.927 104.294 394.071 104.584C381.997 108.663 368.866 106.9 356.686 110.497C355.824 110.752 356.191 112.101 357.058 111.845Z" fill="#D7E0E0"/>
<path d="M362.59 120.74C372.299 120.042 380.982 114.445 390.738 113.842C391.634 113.786 391.639 112.387 390.738 112.444C385.894 112.743 381.229 114.212 376.642 115.703C372.079 117.187 367.415 118.996 362.59 119.343C361.696 119.406 361.69 120.805 362.59 120.74Z" fill="#D7E0E0"/>
<path d="M366.494 122.011C365.903 122.505 365.252 122.501 364.994 123.305C364.868 123.698 365.22 124.249 365.668 124.19C372.756 123.246 379.996 124.074 386.965 122.193C387.835 121.959 387.465 120.61 386.593 120.845C379.749 122.692 372.631 121.864 365.668 122.791C365.892 123.086 366.117 123.382 366.342 123.676C366.375 123.573 367.314 123.14 367.481 122.999C368.174 122.42 367.18 121.436 366.494 122.011Z" fill="#D7E0E0"/>
<path d="M376.918 126.136C379.781 127.261 383.196 126.124 386.086 125.643C386.974 125.496 386.596 124.148 385.714 124.295C383.058 124.736 379.915 125.818 377.29 124.788C376.449 124.458 376.089 125.81 376.918 126.136Z" fill="#D7E0E0"/>
<path d="M345.882 45.1497C345.882 46.5397 344.755 47.6665 343.365 47.6665C341.975 47.6665 340.848 46.5397 340.848 45.1497C340.848 43.7597 341.975 42.6328 343.365 42.6328C344.756 42.6328 345.882 43.7597 345.882 45.1497Z" fill="#FF1717"/>
<path d="M399.573 40.6746C399.573 42.0646 398.446 43.1914 397.056 43.1914C395.666 43.1914 394.539 42.0646 394.539 40.6746C394.539 39.2846 395.666 38.1577 397.056 38.1577C398.445 38.1577 399.573 39.2846 399.573 40.6746Z" fill="#579334"/>
<path d="M461.831 135.324C461.017 126.796 460.576 118.102 460.788 109.226C454.464 113.995 436.688 110.194 436.688 110.194C438.3 119.491 439.112 131.101 436.762 140.019C444.973 139.347 453.759 137.459 461.831 135.324Z" fill="#AA3C6E"/>
<path d="M463.006 132.977C462.19 124.449 461.749 115.755 461.962 106.879C455.637 111.648 437.861 107.847 437.861 107.847C439.474 117.144 440.285 128.753 437.936 137.672C446.147 137 454.932 135.112 463.006 132.977Z" fill="#FF5593"/>
<path d="M445.346 116.273C446.925 117.375 449.177 117.157 450.978 116.926C453.177 116.644 455.336 116.076 457.457 115.442C458.06 115.261 457.803 114.318 457.197 114.499C455.368 115.046 453.519 115.526 451.636 115.846C449.865 116.148 447.418 116.53 445.84 115.428C445.321 115.066 444.833 115.914 445.346 116.273Z" fill="#AA3C6E"/>
<path d="M445.722 120.429C448.007 120.074 450.341 120.168 452.633 119.86C453.248 119.777 453.257 118.799 452.633 118.882C450.254 119.202 447.836 119.118 445.462 119.487C444.841 119.583 445.106 120.525 445.722 120.429Z" fill="#AA3C6E"/>
<path d="M445.052 121.553C447.222 123.223 450.439 122.489 452.926 122.207C453.545 122.136 453.553 121.158 452.926 121.229C450.625 121.491 447.549 122.251 445.546 120.709C445.046 120.324 444.56 121.174 445.052 121.553Z" fill="#AA3C6E"/>
<path d="M442.789 126.003C447.138 124.797 451.703 124.837 456.153 124.26C456.77 124.18 456.777 123.201 456.153 123.282C451.618 123.871 446.962 123.831 442.529 125.06C441.922 125.228 442.18 126.171 442.789 126.003Z" fill="#AA3C6E"/>
<path d="M444.712 129.247C447.603 128.927 450.494 128.615 453.35 128.056C453.968 127.935 453.705 126.993 453.09 127.113C450.319 127.655 447.516 127.959 444.712 128.269C444.093 128.338 444.086 129.317 444.712 129.247Z" fill="#AA3C6E"/>
<path d="M445.247 131.157C446.077 131.806 447.587 131.375 448.52 131.22C450.147 130.95 451.763 130.559 453.35 130.11C453.956 129.938 453.698 128.995 453.09 129.167C451.808 129.529 450.51 129.837 449.204 130.101C448.511 130.242 447.814 130.362 447.111 130.439C446.869 130.465 446.089 130.584 445.939 130.465C445.448 130.082 444.75 130.769 445.247 131.157Z" fill="#AA3C6E"/>
<path d="M144.232 189.29C143.417 180.762 142.976 172.068 143.189 163.192C136.865 167.961 119.088 164.16 119.088 164.16C120.7 173.458 121.512 185.067 119.163 193.985C127.374 193.313 136.159 191.425 144.232 189.29Z" fill="#AA3C6E"/>
<path d="M145.406 186.943C144.591 178.415 144.149 169.721 144.362 160.845C138.038 165.614 120.261 161.813 120.261 161.813C121.874 171.11 122.686 182.719 120.337 191.637C128.547 190.965 137.332 189.078 145.406 186.943Z" fill="#FF5593"/>
<path d="M127.746 170.239C129.326 171.342 131.578 171.123 133.379 170.892C135.578 170.61 137.736 170.042 139.858 169.408C140.46 169.228 140.204 168.284 139.598 168.465C137.768 169.011 135.92 169.492 134.037 169.813C132.266 170.115 129.818 170.496 128.241 169.395C127.722 169.032 127.233 169.881 127.746 170.239Z" fill="#AA3C6E"/>
<path d="M128.123 174.395C130.408 174.04 132.742 174.134 135.034 173.826C135.649 173.743 135.657 172.764 135.034 172.848C132.655 173.167 130.237 173.084 127.863 173.452C127.241 173.549 127.507 174.49 128.123 174.395Z" fill="#AA3C6E"/>
<path d="M127.453 175.519C129.622 177.189 132.84 176.456 135.327 176.172C135.946 176.102 135.953 175.123 135.327 175.195C133.026 175.456 129.95 176.216 127.947 174.675C127.447 174.29 126.96 175.14 127.453 175.519Z" fill="#AA3C6E"/>
<path d="M125.189 179.969C129.539 178.763 134.104 178.803 138.554 178.226C139.17 178.146 139.178 177.168 138.554 177.248C134.018 177.837 129.363 177.797 124.93 179.026C124.322 179.194 124.581 180.137 125.189 179.969Z" fill="#AA3C6E"/>
<path d="M127.113 183.214C130.003 182.894 132.894 182.582 135.75 182.023C136.369 181.902 136.107 180.959 135.491 181.079C132.72 181.622 129.917 181.925 127.113 182.235C126.493 182.304 126.487 183.283 127.113 183.214Z" fill="#AA3C6E"/>
<path d="M127.648 185.124C128.478 185.772 129.988 185.341 130.921 185.186C132.548 184.916 134.163 184.525 135.75 184.076C136.356 183.905 136.098 182.961 135.491 183.133C134.208 183.496 132.91 183.804 131.605 184.068C130.912 184.208 130.214 184.329 129.512 184.405C129.27 184.431 128.49 184.55 128.34 184.432C127.849 184.049 127.151 184.736 127.648 185.124Z" fill="#AA3C6E"/>
<path d="M364.139 282.203C364.414 286.169 361.422 289.384 357.455 289.384H334.955C330.989 289.384 328.176 286.169 328.671 282.203L334.358 236.723C334.852 232.757 337.456 229.542 340.171 229.542H355.573C358.288 229.542 360.711 232.757 360.986 236.723L364.139 282.203Z" fill="#3D3D3D"/>
<path d="M358.015 280.947C358.235 284.047 355.844 286.56 352.678 286.56H334.706C331.539 286.56 329.292 284.047 329.688 280.947L334.229 245.399C334.625 242.299 336.704 239.786 338.872 239.786H351.173C353.342 239.786 355.278 242.299 355.497 245.399L358.015 280.947Z" fill="#707070"/>
<path d="M344.305 283.488C337.769 283.488 332.452 278.171 332.452 271.635C332.452 265.099 337.769 259.782 344.305 259.782C350.84 259.782 356.158 265.099 356.158 271.635C356.158 278.171 350.841 283.488 344.305 283.488ZM344.305 260.665C338.256 260.665 333.334 265.586 333.334 271.636C333.334 277.685 338.256 282.606 344.305 282.606C350.354 282.606 355.275 277.685 355.275 271.636C355.276 265.586 350.354 260.665 344.305 260.665Z" fill="#3D3D3D"/>
<path d="M344.305 262.541C339.29 262.541 335.211 266.62 335.211 271.635C335.211 276.65 339.29 280.729 344.305 280.729C349.319 280.729 353.399 276.65 353.399 271.635C353.399 266.62 349.319 262.541 344.305 262.541Z" fill="#3D3D3D"/>
<path d="M344.305 256.989C340.609 256.989 337.602 253.983 337.602 250.286C337.602 246.59 340.609 243.584 344.305 243.584C348 243.584 351.007 246.59 351.007 250.286C351.008 253.983 348.001 256.989 344.305 256.989ZM344.305 244.084C340.884 244.084 338.101 246.866 338.101 250.287C338.101 253.708 340.884 256.491 344.305 256.491C347.725 256.491 350.508 253.708 350.508 250.287C350.509 246.866 347.725 244.084 344.305 244.084Z" fill="#3D3D3D"/>
<path d="M344.305 245.145C341.469 245.145 339.162 247.451 339.162 250.287C339.162 253.123 341.469 255.429 344.305 255.429C347.14 255.429 349.447 253.123 349.447 250.287C349.447 247.451 347.141 245.145 344.305 245.145Z" fill="#3D3D3D"/>
<path d="M674.558 301.789H655.459V519.822H674.558V301.789Z" fill="#A0A0A0"/>
<path opacity="0.7" d="M674.558 512.208H655.459V519.822H674.558V512.208Z" fill="#212E35"/>
<path d="M662.916 489.335C662.916 490.697 662.042 491.801 660.965 491.801C659.889 491.801 659.016 490.697 659.016 489.335V313.608C659.016 312.246 659.889 311.142 660.965 311.142C662.042 311.142 662.916 312.246 662.916 313.608V489.335Z" fill="#CCCCCC"/>
<path d="M538.383 301.789H519.284V519.822H538.383V301.789Z" fill="#A0A0A0"/>
<path opacity="0.7" d="M538.383 512.208H519.284V519.822H538.383V512.208Z" fill="#212E35"/>
<path d="M526.74 489.335C526.74 490.697 525.868 491.801 524.79 491.801C523.713 491.801 522.841 490.697 522.841 489.335V313.608C522.841 312.246 523.713 311.142 524.79 311.142C525.868 311.142 526.74 312.246 526.74 313.608V489.335Z" fill="#CCCCCC"/>
<path d="M319.935 301.789H300.836V519.822H319.935V301.789Z" fill="#A0A0A0"/>
<path opacity="0.7" d="M319.935 512.208H300.836V519.822H319.935V512.208Z" fill="#212E35"/>
<path d="M308.292 489.335C308.292 490.697 307.419 491.801 306.342 491.801C305.265 491.801 304.392 490.697 304.392 489.335V313.608C304.392 312.246 305.265 311.142 306.342 311.142C307.419 311.142 308.292 312.246 308.292 313.608V489.335Z" fill="#CCCCCC"/>
<path d="M184.319 301.789H165.219V519.822H184.319V301.789Z" fill="#A0A0A0"/>
<path opacity="0.7" d="M184.319 512.208H165.219V519.822H184.319V512.208Z" fill="#212E35"/>
<path d="M172.676 489.335C172.676 490.697 171.803 491.801 170.727 491.801C169.65 491.801 168.777 490.697 168.777 489.335V313.608C168.777 312.246 169.65 311.142 170.727 311.142C171.804 311.142 172.676 312.246 172.676 313.608V489.335Z" fill="#CCCCCC"/>
<path d="M675.593 297.409H164.416V314.188H675.593V297.409Z" fill="#302530"/>
<path d="M690.133 290.139H148.756V301.325H690.133V290.139Z" fill="#60485E"/>
<path d="M690.133 290.139H541.453V301.325H690.133V290.139Z" fill="#423241"/>
<path d="M207.273 261.84C206.949 261.8 206.623 261.759 206.301 261.719C206.818 261.751 207.146 261.792 207.273 261.84Z" fill="#603043"/>
<path d="M207.818 359.454C196.398 361.112 211.513 366.396 201.616 369.996L252.075 377.76C277.845 376.199 351.632 380.764 363.473 377.76C367.711 376.684 389.686 377.212 391.461 374.717C377.737 352.409 224.947 356.966 207.818 359.454Z" fill="#00788C"/>
<path d="M467.232 238.49H443.25V288.538H467.232V238.49Z" fill="#3D3D3D"/>
<path d="M454.341 238.49H443.25V288.538H454.341V238.49Z" fill="#757573"/>
<path d="M509.971 286.745C509.971 288.476 508.571 289.872 506.844 289.872H403.64C401.913 289.872 400.512 288.475 400.512 286.745C400.512 285.883 400.863 285.101 401.43 284.538C401.993 283.972 402.778 283.621 403.64 283.621H506.843C508.57 283.621 509.971 285.022 509.971 286.745Z" fill="#999995"/>
<path d="M509.971 286.745C509.971 288.476 508.989 289.872 507.778 289.872H470.505C469.294 289.872 468.312 288.475 468.312 286.745C468.312 285.883 468.558 285.101 468.955 284.538C469.353 283.972 469.898 283.621 470.505 283.621H507.778C508.989 283.621 509.971 285.022 509.971 286.745Z" fill="#3D3D3D"/>
<path d="M543.987 151.084V245.881C543.987 251.344 540.317 255.889 535.473 256.848C534.855 256.973 534.215 257.035 533.562 257.035H366.764C366.111 257.035 365.472 256.973 364.853 256.848C360.009 255.889 356.339 251.344 356.339 245.881V151.084C356.339 144.926 361.01 139.932 366.765 139.932H533.563C539.32 139.933 543.987 144.926 543.987 151.084Z" fill="#3D3D3D"/>
<path d="M531.561 155.036V241.934C531.561 247.581 527.34 252.158 522.13 252.158H371.273C366.064 252.158 361.843 247.581 361.843 241.934V155.036C361.843 149.388 366.064 144.812 371.273 144.812H522.13C527.34 144.812 531.561 149.388 531.561 155.036Z" fill="#544753"/>
<path d="M532.063 232.085V246.172C532.063 251.749 528.616 256.391 524.067 257.37H363.814C359.264 256.391 355.818 251.75 355.818 246.172V232.085H532.063Z" fill="#CCCCCC"/>
<path d="M446.385 241.139C446.385 243.298 444.05 245.048 441.172 245.048C438.294 245.048 435.96 243.298 435.96 241.139C435.96 238.981 438.294 237.23 441.172 237.23C444.05 237.23 446.385 238.981 446.385 241.139Z" fill="#757573"/>
<path d="M377.177 150.291H368.546V151.216H377.177V150.291Z" fill="#CACEA5"/>
<path d="M426.5 150.291H414.786V151.216H426.5V150.291Z" fill="#CACEA5"/>
<path d="M467.192 150.291H428.967V151.216H467.192V150.291Z" fill="#CACEA5"/>
<path d="M493.395 151.216V150.291H469.659V151.216H478.29V150.599H481.065V151.216H493.395Z" fill="#CACEA5"/>
<path d="M510.042 150.291H500.486V151.216H510.042V150.291Z" fill="#CACEA5"/>
<path d="M377.177 154.606H368.546V155.532H377.177V154.606Z" fill="#CACEA5"/>
<path d="M467.192 154.606H457.327V155.532H467.192V154.606Z" fill="#CACEA5"/>
<path d="M478.291 154.606H469.659V155.532H478.291V154.606Z" fill="#CACEA5"/>
<path d="M510.042 154.606H500.486V155.532H510.042V154.606Z" fill="#CACEA5"/>
<path d="M493.395 154.606H481.065V155.532H493.395V154.606Z" fill="#CACEA5"/>
<path d="M426.5 154.606H414.786V155.532H426.5V154.606Z" fill="#CACEA5"/>
<path d="M452.704 154.606H428.967V155.532H452.704V154.606Z" fill="#CACEA5"/>
<path d="M377.177 158.922H368.546V159.847H377.177V158.922Z" fill="#CACEA5"/>
<path d="M452.704 158.922H420.643V159.847H452.704V158.922Z" fill="#CACEA5"/>
<path d="M459.177 158.922H457.327V159.847H459.177V158.922Z" fill="#CACEA5"/>
<path d="M478.29 158.922H466.267V159.847H478.29V158.922Z" fill="#CACEA5"/>
<path d="M493.395 158.922H481.065V159.847H493.395V158.922Z" fill="#CACEA5"/>
<path d="M510.042 158.922H500.486V159.847H510.042V158.922Z" fill="#CACEA5"/>
<path d="M377.177 163.238H368.546V164.163H377.177V163.238Z" fill="#CACEA5"/>
<path d="M452.704 163.238H420.643V164.163H452.704V163.238Z" fill="#CACEA5"/>
<path d="M459.177 163.238H457.327V164.163H459.177V163.238Z" fill="#CACEA5"/>
<path d="M493.395 163.238H466.267V164.163H493.395V163.238Z" fill="#CACEA5"/>
<path d="M510.042 163.238H505.11V164.163H510.042V163.238Z" fill="#CACEA5"/>
<path d="M503.877 163.238H500.486V164.163H503.877V163.238Z" fill="#CACEA5"/>
<path d="M393.516 167.554H368.546V168.479H393.516V167.554Z" fill="#CACEA5"/>
<path d="M428.35 167.554H420.643V168.479H428.35V167.554Z" fill="#CACEA5"/>
<path d="M503.877 167.554H466.267V168.479H503.877V167.554Z" fill="#CACEA5"/>
<path d="M510.042 167.554H505.11V168.479H510.042V167.554Z" fill="#CACEA5"/>
<path d="M448.388 167.554H438.831V168.479H448.388V167.554Z" fill="#CACEA5"/>
<path d="M413.553 172.487H393.516V171.87H368.546V172.795H413.553V172.487Z" fill="#CACEA5"/>
<path d="M448.388 171.87H438.831V172.795H448.388V171.87Z" fill="#CACEA5"/>
<path d="M466.267 171.87V172.487H463.185V172.795H483.223V171.87H466.267Z" fill="#CACEA5"/>
<path d="M503.877 171.87H484.147V172.795H503.877V171.87Z" fill="#CACEA5"/>
<path d="M510.042 171.87H505.11V172.795H510.042V171.87Z" fill="#CACEA5"/>
<path d="M428.35 171.87H420.643V172.795H428.35V171.87Z" fill="#CACEA5"/>
<path d="M368.546 176.186V177.111H369.779V176.802H372.553V177.111H428.35V176.186H368.546Z" fill="#E0E8BF"/>
<path d="M448.388 176.186H438.831V177.11H448.388V176.186Z" fill="#E0E8BF"/>
<path d="M483.223 176.186H463.185V177.11H483.223V176.186Z" fill="#E0E8BF"/>
<path d="M503.877 176.186H484.147V177.11H503.877V176.186Z" fill="#E0E8BF"/>
<path d="M510.042 176.186H505.11V177.11H510.042V176.186Z" fill="#E0E8BF"/>
<path d="M369.779 180.501H368.546V181.425H369.779V180.501Z" fill="#E0E8BF"/>
<path d="M428.35 180.501H372.553V181.425H428.35V180.501Z" fill="#E0E8BF"/>
<path d="M448.388 180.501H438.831V181.425H448.388V180.501Z" fill="#E0E8BF"/>
<path d="M483.223 180.501H463.185V181.425H483.223V180.501Z" fill="#E0E8BF"/>
<path d="M503.877 180.501H484.147V181.425H503.877V180.501Z" fill="#E0E8BF"/>
<path d="M510.042 180.501H505.11V181.425H510.042V180.501Z" fill="#E0E8BF"/>
<path d="M428.35 184.817H372.553V185.742H428.35V184.817Z" fill="#E0E8BF"/>
<path d="M446.846 184.817H438.831V185.742H446.846V184.817Z" fill="#E0E8BF"/>
<path d="M479.832 184.817H463.185V185.742H479.832V184.817Z" fill="#E0E8BF"/>
<path d="M510.042 184.817H495.553V185.742H510.042V184.817Z" fill="#E0E8BF"/>
<path d="M490.004 184.817H486.922V185.742H490.004V184.817Z" fill="#E0E8BF"/>
<path d="M479.832 189.133H463.185V190.058H479.832V189.133Z" fill="#E0E8BF"/>
<path d="M490.004 189.133H486.922V190.058H490.004V189.133Z" fill="#E0E8BF"/>
<path d="M499.252 189.133H495.553V190.058H499.252V189.133Z" fill="#E0E8BF"/>
<path d="M510.042 189.133H500.794V190.058H510.042V189.133Z" fill="#E0E8BF"/>
<path d="M446.846 189.133H438.831V190.058H446.846V189.133Z" fill="#E0E8BF"/>
<path d="M381.802 189.133H372.553V190.058H381.802V189.133Z" fill="#E0E8BF"/>
<path d="M428.35 189.133H382.109V190.058H428.35V189.133Z" fill="#E0E8BF"/>
<path d="M446.846 193.449H438.831V194.374H446.846V193.449Z" fill="#E0E8BF"/>
<path d="M479.832 193.449H463.185V194.374H479.832V193.449Z" fill="#E0E8BF"/>
<path d="M490.004 193.449H486.922V194.374H490.004V193.449Z" fill="#E0E8BF"/>
<path d="M499.252 193.449H495.553V194.374H499.252V193.449Z" fill="#E0E8BF"/>
<path d="M510.042 193.449H500.794V194.374H510.042V193.449Z" fill="#E0E8BF"/>
<path d="M428.35 193.449H382.109V194.374H428.35V193.449Z" fill="#E0E8BF"/>
<path d="M381.802 193.449H372.553V194.374H381.802V193.449Z" fill="#E0E8BF"/>
<path d="M372.553 197.764V198.381H369.779V197.764H369.471V198.689H381.801V197.764H372.553Z" fill="#E0E8BF"/>
<path d="M446.846 197.764H382.109V198.689H446.846V197.764Z" fill="#E0E8BF"/>
<path d="M472.433 197.764H463.185V198.689H472.433V197.764Z" fill="#E0E8BF"/>
<path d="M499.253 197.764H473.358V198.689H499.253V197.764Z" fill="#E0E8BF"/>
<path d="M510.042 197.764H500.794V198.689H510.042V197.764Z" fill="#E0E8BF"/>
<path d="M446.847 202.08H401.53V203.005H446.847V202.08Z" fill="#E0E8BF"/>
<path d="M381.802 202.08H369.471V203.005H381.802V202.08Z" fill="#E0E8BF"/>
<path d="M397.523 202.08H382.109V203.005H397.523V202.08Z" fill="#E0E8BF"/>
<path d="M499.253 202.08H473.358V203.005H499.253V202.08Z" fill="#E0E8BF"/>
<path d="M472.433 202.08H454.861V203.005H472.433V202.08Z" fill="#E0E8BF"/>
<path d="M510.042 202.08H500.794V203.005H510.042V202.08Z" fill="#E0E8BF"/>
<path d="M375.328 206.396H369.471V207.321H375.328V206.396Z" fill="#E0E8BF"/>
<path d="M381.801 206.396H376.869V207.321H381.801V206.396Z" fill="#E0E8BF"/>
<path d="M397.523 206.396H382.109V207.321H397.523V206.396Z" fill="#E0E8BF"/>
<path d="M446.847 206.396H401.53V207.321H446.847V206.396Z" fill="#E0E8BF"/>
<path d="M472.433 206.396H454.861V207.321H472.433V206.396Z" fill="#E0E8BF"/>
<path d="M499.253 206.396H473.358V207.321H499.253V206.396Z" fill="#E0E8BF"/>
<path d="M510.042 206.396H500.794V207.321H510.042V206.396Z" fill="#E0E8BF"/>
<path d="M462.877 210.712H414.478V211.637H462.877V210.712Z" fill="#E0E8BF"/>
<path d="M375.328 210.712H369.471V211.637H375.328V210.712Z" fill="#E0E8BF"/>
<path d="M383.651 210.712H376.869V211.637H383.651V210.712Z" fill="#E0E8BF"/>
<path d="M397.523 210.712H386.733V211.637H397.523V210.712Z" fill="#E0E8BF"/>
<path d="M412.32 210.712H401.53V211.637H412.32V210.712Z" fill="#E0E8BF"/>
<path d="M472.433 210.712H464.726V211.637H472.433V210.712Z" fill="#E0E8BF"/>
<path d="M510.042 210.712H473.358V211.637H510.042V210.712Z" fill="#E0E8BF"/>
<path d="M472.433 215.028H464.726V215.953H472.433V215.028Z" fill="#E0E8BF"/>
<path d="M375.327 215.028H368.546V215.953H375.327V215.028Z" fill="#E0E8BF"/>
<path d="M397.523 215.028H386.733V215.953H397.523V215.028Z" fill="#E0E8BF"/>
<path d="M383.651 215.028H376.869V215.953H383.651V215.028Z" fill="#E0E8BF"/>
<path d="M412.32 215.028H401.53V215.953H412.32V215.028Z" fill="#E0E8BF"/>
<path d="M462.877 215.028H414.478V215.953H462.877V215.028Z" fill="#E0E8BF"/>
<path d="M510.042 215.028H473.358V215.953H510.042V215.028Z" fill="#E0E8BF"/>
<path d="M375.327 219.343H368.546V220.268H375.327V219.343Z" fill="#E0E8BF"/>
<path d="M395.981 219.343H386.733V220.268H395.981V219.343Z" fill="#E0E8BF"/>
<path d="M412.32 219.343H401.838V220.268H412.32V219.343Z" fill="#E0E8BF"/>
<path d="M383.651 219.343H376.869V220.268H383.651V219.343Z" fill="#E0E8BF"/>
<path d="M427.734 219.343H414.478V220.268H427.734V219.343Z" fill="#E0E8BF"/>
<path d="M441.914 219.343H429.583V220.268H441.914V219.343Z" fill="#E0E8BF"/>
<path d="M462.876 219.343H444.688V220.268H462.876V219.343Z" fill="#E0E8BF"/>
<path d="M510.042 219.343H464.726V220.268H510.042V219.343Z" fill="#E0E8BF"/>
<path d="M383.651 223.659H368.546V224.584H383.651V223.659Z" fill="#E0E8BF"/>
<path d="M395.981 223.659H386.733V224.584H395.981V223.659Z" fill="#E0E8BF"/>
<path d="M427.734 223.659H401.838V224.584H427.734V223.659Z" fill="#E0E8BF"/>
<path d="M441.914 223.659H429.583V224.584H441.914V223.659Z" fill="#E0E8BF"/>
<path d="M462.876 223.659H444.688V224.584H462.876V223.659Z" fill="#E0E8BF"/>
<path d="M510.042 223.659H464.726V224.584H510.042V223.659Z" fill="#E0E8BF"/>
<path d="M456.076 156.951H373.866V218.9H456.076V156.951Z" fill="#353535"/>
<path d="M456.089 156.951H373.853V161.589H456.089V156.951Z" fill="#707070"/>
<path d="M451.77 159.207C451.77 160.098 451.049 160.82 450.158 160.82C449.268 160.82 448.546 160.098 448.546 159.207C448.546 158.317 449.269 157.596 450.158 157.596C451.049 157.596 451.77 158.317 451.77 159.207Z" fill="#FF5821"/>
<path d="M444.032 159.207C444.032 160.098 443.311 160.82 442.421 160.82C441.53 160.82 440.809 160.098 440.809 159.207C440.809 158.317 441.531 157.596 442.421 157.596C443.311 157.596 444.032 158.317 444.032 159.207Z" fill="#889F33"/>
<path d="M436.726 159.207C436.726 160.098 436.004 160.82 435.114 160.82C434.224 160.82 433.501 160.098 433.501 159.207C433.501 158.317 434.224 157.596 435.114 157.596C436.004 157.596 436.726 158.317 436.726 159.207Z" fill="white"/>
<path d="M382.671 167.621H379.447V168.542H382.671V167.621Z" fill="#889F33"/>
<path d="M438.629 167.621H393.494V168.542H438.629V167.621Z" fill="#889F33"/>
<path d="M382.671 171.305H379.447V172.226H382.671V171.305Z" fill="#889F33"/>
<path d="M393.494 171.305V172.226H427.806V171.536H435.175V172.226H435.636V171.305H393.494Z" fill="#889F33"/>
<path d="M382.671 174.99H379.447V175.912H382.671V174.99Z" fill="#889F33"/>
<path d="M423.661 174.99H393.494V175.912H423.661V174.99Z" fill="#889F33"/>
<path d="M435.636 175.45V174.99H435.175V175.911H438.629V175.45H435.636Z" fill="#889F33"/>
<path d="M393.494 178.674V179.134H382.671V178.674H379.447V179.595H405.469V178.674H393.494Z" fill="#889F33"/>
<path d="M423.662 178.674H417.904V179.595H423.662V178.674Z" fill="#889F33"/>
<path d="M438.86 178.674H434.484V179.595H438.86V178.674Z" fill="#889F33"/>
<path d="M393.494 182.359H379.447V183.28H393.494V182.359Z" fill="#889F33"/>
<path d="M440.702 182.359H417.904V183.28H440.702V182.359Z" fill="#889F33"/>
<path d="M393.494 186.043H379.447V186.965H393.494V186.043Z" fill="#889F33"/>
<path d="M440.701 186.043H417.904V186.733H405.469V186.043H404.548V186.965H414.91V186.964H422.739V186.965H423.892V186.273H428.727V186.965H431.49V186.503H440.701V186.043Z" fill="#889F33"/>
<path d="M414.91 189.728H404.548V189.958H393.494V189.728H379.447V190.649H414.91V189.728Z" fill="#889F33"/>
<path d="M423.891 189.728H422.739V190.649H423.891V189.728Z" fill="#889F33"/>
<path d="M431.49 189.728H428.727V190.649H431.49V189.728Z" fill="#889F33"/>
<path d="M394.185 202.163H380.138V203.084H394.185V202.163Z" fill="#FF5821"/>
<path d="M409.153 202.163H406.39V203.084H409.153V202.163Z" fill="#FF5821"/>
<path d="M428.497 202.163H416.292V203.084H428.497V202.163Z" fill="#FF5821"/>
<path d="M394.186 206.539H379.908V207.46H394.186V206.539Z" fill="#FF5821"/>
<path d="M409.153 206.539H406.39V207.46H409.153V206.539Z" fill="#FF5821"/>
<path d="M417.904 206.539H416.292V207.46H417.904V206.539Z" fill="#FF5821"/>
<path d="M428.496 206.539H424.121V207.46H428.496V206.539Z" fill="#FF5821"/>
<path d="M394.185 210.913H379.678V211.834H394.185V210.913Z" fill="#FF5821"/>
<path d="M427.346 210.913H406.39V211.834H427.346V210.913Z" fill="#FF5821"/>
<path d="M522.9 180.968H462.23V226.686H522.9V180.968Z" fill="#353535"/>
<path d="M522.909 180.968H462.221V184.392H522.909V180.968Z" fill="#707070"/>
<path d="M519.722 182.633C519.722 183.291 519.19 183.823 518.533 183.823C517.876 183.823 517.343 183.291 517.343 182.633C517.343 181.976 517.876 181.444 518.533 181.444C519.189 181.444 519.722 181.976 519.722 182.633Z" fill="#FF5821"/>
<path d="M514.012 182.633C514.012 183.291 513.48 183.823 512.822 183.823C512.165 183.823 511.633 183.291 511.633 182.633C511.633 181.976 512.165 181.444 512.822 181.444C513.48 181.444 514.012 181.976 514.012 182.633Z" fill="#889F33"/>
<path d="M508.62 182.633C508.62 183.291 508.087 183.823 507.43 183.823C506.773 183.823 506.24 183.291 506.24 182.633C506.24 181.976 506.773 181.444 507.43 181.444C508.087 181.444 508.62 181.976 508.62 182.633Z" fill="white"/>
<path d="M474.434 190.336H465.977V190.662H474.434V190.336Z" fill="white"/>
<path d="M492.159 190.336H481.101V190.662H492.159V190.336Z" fill="white"/>
<path d="M480.125 190.336H475.572V190.662H480.125V190.336Z" fill="white"/>
<path d="M496.387 190.336H493.786V190.662H496.387V190.336Z" fill="white"/>
<path d="M510.536 190.336H496.876V190.662H510.536V190.336Z" fill="white"/>
<path d="M513.789 190.336H511.024V190.662H513.789V190.336Z" fill="white"/>
<path d="M518.666 190.336H514.113V190.662H518.666V190.336Z" fill="white"/>
<path d="M474.434 191.15H465.977V191.637H474.434V191.15Z" fill="white"/>
<path d="M480.125 191.15H475.572V191.637H480.125V191.15Z" fill="white"/>
<path d="M492.159 191.15H481.101V191.637H492.159V191.15Z" fill="white"/>
<path d="M496.387 191.15H493.786V191.637H496.387V191.15Z" fill="white"/>
<path d="M496.876 191.15V191.637H504.844V191.312H505.332V191.637H510.535V191.15H496.876Z" fill="white"/>
<path d="M513.789 191.15H511.024V191.637H513.789V191.15Z" fill="white"/>
<path d="M518.666 191.15H514.113V191.637H518.666V191.15Z" fill="white"/>
<path d="M480.288 195.378H465.977V195.703H480.288V195.378Z" fill="white"/>
<path d="M486.305 195.378H480.614V195.703H486.305V195.378Z" fill="white"/>
<path d="M492.16 195.378H487.606V195.703H492.16V195.378Z" fill="white"/>
<path d="M504.844 195.378H493.786V195.703H504.844V195.378Z" fill="white"/>
<path d="M518.666 195.378H511.349V195.703H518.666V195.378Z" fill="white"/>
<path d="M510.536 195.378H505.332V195.703H510.536V195.378Z" fill="white"/>
<path d="M486.305 196.191H480.614V197.492H486.305V196.191Z" fill="white"/>
<path d="M480.288 196.191H465.977V197.492H480.288V196.191Z" fill="white"/>
<path d="M492.16 196.191H487.606V197.492H492.16V196.191Z" fill="white"/>
<path d="M510.535 196.191H505.332V197.329H504.844V196.191H493.786V197.492H510.535V196.191Z" fill="white"/>
<path d="M511.349 196.191V197.492H513.951V196.679H516.065V197.492H518.666V196.191H511.349Z" fill="white"/>
<path d="M473.784 202.441H466.14V203.946H470.694V202.533H473.784V202.441Z" fill="white"/>
<path d="M505.006 202.441H502.73V202.533H505.006V202.441Z" fill="white"/>
<path d="M511.511 202.441V202.533H514.439V203.946H518.829V202.441H511.511Z" fill="white"/>
<path d="M510.698 202.441H507.445V202.533H510.698V202.441Z" fill="white"/>
<path d="M486.468 211.639H480.776V212.218H486.468V211.639Z" fill="white"/>
<path d="M486.468 208.55H481.59V209.526H486.468V208.55Z" fill="white"/>
<path d="M466.14 208.55V209.526H471.669V208.712H471.832V209.526H472.97V208.55H466.14Z" fill="white"/>
<path d="M479.313 208.55H473.133V209.526H479.313V208.55Z" fill="white"/>
<path d="M480.451 211.639H473.133V212.218H480.451V211.639Z" fill="white"/>
<path d="M471.669 211.639H466.14V212.218H471.669V211.639Z" fill="white"/>
<path d="M472.97 211.639H471.832V212.218H472.97V211.639Z" fill="white"/>
<path d="M491.509 208.55H487.769V209.526H491.509V208.55Z" fill="white"/>
<path d="M491.509 211.639H487.769V212.218H491.509V211.639Z" fill="white"/>
<path d="M510.698 208.55H507.445V209.526H510.698V208.55Z" fill="white"/>
<path d="M505.007 208.55H493.949V209.526H505.007V208.55Z" fill="white"/>
<path d="M504.447 217.568H493.389V218.544H504.447V217.568Z" fill="white"/>
<path d="M517.73 217.568H506.672V218.544H517.73V217.568Z" fill="white"/>
<path d="M505.17 211.639H493.949V212.218H505.17V211.639Z" fill="white"/>
<path d="M510.698 211.639H507.445V212.218H510.698V211.639Z" fill="white"/>
<path d="M514.113 208.55H511.511V209.526H514.113V208.55Z" fill="white"/>
<path d="M518.829 208.55H516.227V209.526H518.829V208.55Z" fill="white"/>
<path d="M514.113 211.639H511.511V212.218H514.113V211.639Z" fill="white"/>
<path d="M518.829 211.639H516.227V212.218H518.829V211.639Z" fill="white"/>
<path d="M486.344 214.186V214.278H489.271V215.69H493.662V214.186H486.344Z" fill="white"/>
<path d="M485.53 220.295H482.278V221.271H485.53V220.295Z" fill="white"/>
<path d="M479.839 220.295H468.781V221.271H479.839V220.295Z" fill="white"/>
<path d="M480.002 223.385H468.781V223.965H480.002V223.385Z" fill="white"/>
<path d="M485.53 223.385H482.278V223.965H485.53V223.385Z" fill="white"/>
<path d="M488.946 220.295H486.344V221.271H488.946V220.295Z" fill="white"/>
<path d="M493.661 220.295H491.06V221.271H493.661V220.295Z" fill="white"/>
<path d="M488.946 223.385H486.344V223.965H488.946V223.385Z" fill="white"/>
<path d="M493.661 223.385H491.06V223.965H493.661V223.385Z" fill="white"/>
<path d="M474.434 187.897H465.977V189.035H474.434V187.897Z" fill="white"/>
<path d="M480.125 187.897H475.572V189.035H480.125V187.897Z" fill="white"/>
<path d="M492.159 187.897H481.101V189.035H492.159V187.897Z" fill="white"/>
<path d="M510.535 189.036V187.897H493.786V189.036H496.388V188.222H496.876V189.036H510.535Z" fill="white"/>
<path d="M511.024 187.897V189.036H513.788V188.711H514.113V189.036H518.666V187.897H511.024Z" fill="white"/>
<path d="M469.231 285.334L423.371 285.6L423.393 289.328L469.253 289.062L469.231 285.334Z" fill="#9C9E8F"/>
<path d="M334.429 286.128L331.655 289.873L435.119 289.27L435.097 285.542L334.429 286.128Z" fill="#C9CCBC"/>
<path d="M344.974 282.898L334.429 286.128L469.212 285.343L466.398 282.191L344.974 282.898Z" fill="#3D3D3D"/>
<path d="M527.135 289.873H493.356C496.686 284.832 502.203 279.971 512.557 280.599C513.832 280.676 515.041 280.862 516.178 281.137C521.901 282.522 525.806 286.184 527.135 289.873Z" fill="#728425"/>
<path d="M527.135 289.873H504.151C506.611 286.15 510.265 282.524 516.178 281.137C521.901 282.522 525.806 286.184 527.135 289.873Z" fill="#889F33"/>
<path d="M587.569 282.762C587.843 286.728 584.851 289.943 580.886 289.943H558.385C554.419 289.943 551.606 286.728 552.102 282.762L557.788 237.282C558.283 233.316 560.886 230.101 563.601 230.101H579.003C581.718 230.101 584.141 233.316 584.417 237.282L587.569 282.762Z" fill="#3D3D3D"/>
<path d="M581.446 281.506C581.665 284.606 579.275 287.119 576.107 287.119H558.136C554.968 287.119 552.721 284.606 553.118 281.506L557.659 245.958C558.054 242.858 560.134 240.345 562.302 240.345H574.603C576.771 240.345 578.707 242.858 578.927 245.958L581.446 281.506Z" fill="#707070"/>
<path d="M567.735 284.047C561.199 284.047 555.882 278.73 555.882 272.194C555.882 265.658 561.2 260.341 567.735 260.341C574.27 260.341 579.587 265.658 579.587 272.194C579.587 278.73 574.27 284.047 567.735 284.047ZM567.735 261.223C561.686 261.223 556.765 266.145 556.765 272.194C556.765 278.243 561.686 283.166 567.735 283.166C573.784 283.166 578.706 278.243 578.706 272.194C578.706 266.145 573.784 261.223 567.735 261.223Z" fill="#3D3D3D"/>
<path d="M567.735 263.1C562.72 263.1 558.641 267.179 558.641 272.194C558.641 277.209 562.72 281.289 567.735 281.289C572.749 281.289 576.829 277.209 576.829 272.194C576.829 267.179 572.749 263.1 567.735 263.1Z" fill="#3D3D3D"/>
<path d="M567.735 257.549C564.039 257.549 561.032 254.542 561.032 250.846C561.032 247.15 564.039 244.144 567.735 244.144C571.43 244.144 574.437 247.15 574.437 250.846C574.437 254.542 571.43 257.549 567.735 257.549ZM567.735 244.643C564.314 244.643 561.531 247.425 561.531 250.846C561.531 254.266 564.314 257.05 567.735 257.05C571.155 257.05 573.938 254.266 573.938 250.846C573.938 247.425 571.155 244.643 567.735 244.643Z" fill="#3D3D3D"/>
<path d="M567.735 245.704C564.9 245.704 562.592 248.01 562.592 250.846C562.592 253.682 564.9 255.988 567.735 255.988C570.571 255.988 572.877 253.682 572.877 250.846C572.877 248.011 570.571 245.704 567.735 245.704Z" fill="#3D3D3D"/>
<path d="M341.304 510.027C335.696 506.855 330.98 497.712 328.728 492.094C325.098 483.039 326.246 498.849 319.258 497.098C316.392 496.381 314.504 500.637 313.835 503.107C312.238 508.995 313.454 518.727 314.471 522.574C322.802 523.663 327.104 523.606 335.507 523.718C340.343 523.783 350.799 523.845 353.71 519.452C351.427 513.309 346.239 512.818 341.304 510.027Z" fill="#212030"/>
<path d="M316.271 464.594C316.132 471.56 315.013 478.121 315.647 485.289C316.185 491.371 314.614 500.884 319.484 505.333C329.075 500.573 328.999 478.826 331.652 469.49L316.271 464.594Z" fill="#FFA471"/>
<path d="M310.285 486.071L329.524 487.288C330.106 484.84 330.676 482.383 331.242 479.914C339.184 445.269 351.529 407.381 353.838 370.892L319.669 363.378C313.571 364.097 310.068 385.322 309.023 392.702C306.71 409.035 308.77 425.749 309.427 442.12C309.989 456.117 310.859 471.27 310.285 486.071Z" fill="#212030"/>
<path d="M424.771 510.027C419.164 506.855 414.448 497.712 412.196 492.094C408.566 483.039 409.714 498.849 402.726 497.098C399.859 496.381 397.972 500.637 397.302 503.107C395.705 508.995 396.922 518.727 397.939 522.574C406.27 523.663 410.571 523.606 418.975 523.718C423.811 523.783 434.267 523.845 437.177 519.452C434.895 513.309 429.707 512.818 424.771 510.027Z" fill="#212030"/>
<path d="M399.738 464.594C399.599 471.56 398.481 478.121 399.114 485.289C399.652 491.371 398.082 500.884 402.953 505.333C412.543 500.573 412.468 478.826 415.12 469.49L399.738 464.594Z" fill="#FFA471"/>
<path d="M437.304 370.892C437.301 370.94 437.298 370.99 437.293 371.038C435.685 396.21 429.306 422.052 422.903 447.029C420.033 458.209 417.162 469.215 414.71 479.914C414.145 482.383 413.574 484.839 412.993 487.288L393.754 486.069C394.327 471.271 393.458 456.117 392.896 442.121C392.239 425.748 390.177 409.035 392.49 392.701C392.716 391.101 393.06 388.85 393.519 386.297C394.669 379.905 396.553 371.628 399.193 366.966C400.359 364.905 401.673 363.551 403.138 363.378L437.304 370.892Z" fill="#212030"/>
<path d="M437.293 371.038C436.831 372.442 436.026 373.891 434.832 375.378C430.17 381.189 421.161 383.963 411.158 385.252C405.395 385.996 399.302 386.245 393.519 386.298C386.676 386.36 380.267 386.144 375.357 386.144C361.416 386.144 347.624 386.181 333.886 385.025C326.428 384.399 316.996 385.031 308.92 383.955C306.263 383.599 303.752 383.059 301.507 382.229L305.335 337.487C331.352 335.206 344.098 331.867 369.447 337.207C378.13 339.037 443.984 350.658 437.293 371.038Z" fill="#212030"/>
<path d="M422.903 447.029C420.033 458.21 417.162 469.215 414.71 479.914C414.145 482.383 413.574 484.839 412.993 487.288L393.754 486.069C394.327 471.271 393.458 456.117 392.896 442.121C392.239 425.748 390.177 409.035 392.49 392.701C392.716 391.101 393.06 388.85 393.519 386.298C386.676 386.359 380.267 386.143 375.357 386.143C361.416 386.143 347.624 386.18 333.886 385.024C326.428 384.398 316.996 385.03 308.92 383.954L311.163 362.637C313.778 366.459 331.744 365.767 337.357 365.992C349.747 366.495 361.951 366.202 374.275 366.831C381.721 367.211 390.499 366.907 399.193 366.966C408.896 367.032 418.496 367.558 426.038 370.002C419.911 370.827 414.978 372.904 409.408 375.43C412.785 377.415 418.518 378.416 421.844 380.069C417.38 379.552 413.888 381.685 411.158 385.251C404.145 394.412 402.176 413.044 401.774 420.528C401.329 428.777 402.054 440.157 409.372 445.53C414.111 449.014 418.504 448.464 422.903 447.029Z" fill="#171721"/>
<path d="M322.991 149.013H319.123C314.973 149.013 311.598 145.692 311.598 141.611V139.357C311.598 135.276 314.973 131.955 319.123 131.955H322.991C327.14 131.955 330.515 135.275 330.515 139.357V141.611C330.515 145.692 327.14 149.013 322.991 149.013ZM319.124 133.238C315.745 133.238 312.997 135.983 312.997 139.357V141.611C312.997 144.985 315.745 147.73 319.124 147.73H322.992C326.369 147.73 329.118 144.985 329.118 141.611V139.357C329.118 135.982 326.369 133.238 322.992 133.238H319.124Z" fill="#636363"/>
<path d="M319.488 145.101C319.28 146.817 318.744 152.974 318.842 156.426C318.963 160.721 319.492 165.178 320.328 169.321C315.597 171.059 308.454 165.16 305.381 162.039C300.727 157.309 298.112 151.575 297.338 145.027L319.488 145.101Z" fill="#F2EDEE"/>
<path d="M316.144 148.496C313.366 148.451 311.417 153.005 311.173 155.33C310.721 159.659 314.876 163.711 313.997 167.759C310.797 166.527 306.956 162.361 304.504 159.915C302.004 157.422 297.466 152.643 297.633 148.863L316.144 148.496Z" fill="#F2F0EB"/>
<path d="M322.599 154.243C322.375 161.832 320.871 169.335 320.908 170.655C320.908 170.655 320.908 170.655 320.905 170.661C320.911 170.792 320.911 170.929 320.902 171.058C320.894 171.637 320.807 172.216 320.558 172.741C320.304 173.258 319.89 173.72 319.23 174.069C316.509 175.507 312.972 175.638 309.616 174.998C309.057 174.892 308.5 174.763 307.955 174.614C307.58 174.517 307.214 174.407 306.85 174.29C305.603 173.884 304.428 173.387 303.385 172.827C301.836 171.994 300.578 171.023 299.806 170.022C299.501 169.623 299.272 169.217 299.132 168.814C299.123 168.996 299.112 169.192 299.104 169.404C299.098 169.508 299.092 169.611 299.09 169.718C299.087 169.76 299.084 169.804 299.084 169.849C299.075 169.978 299.07 170.109 299.064 170.243C299.064 170.288 299.061 170.333 299.059 170.378V170.408C299.053 170.523 299.05 170.637 299.045 170.755C299.039 170.909 299.033 171.068 299.025 171.228C299.019 171.393 299.014 171.563 299.009 171.739C298.992 172.215 298.972 172.718 298.955 173.25C298.93 174.058 298.905 174.905 298.88 175.775C298.874 176.035 298.866 176.298 298.86 176.561C298.818 178.085 298.782 179.662 298.748 181.197C298.746 181.334 298.743 181.471 298.74 181.605C298.714 182.701 298.695 183.775 298.675 184.787C298.65 186.157 298.628 187.418 298.614 188.495C298.581 190.612 298.569 192.005 298.581 192.063C298.555 192.071 298.527 192.077 298.502 192.082C296.38 192.65 293.083 192.91 289.289 192.896C282.387 192.874 273.841 191.943 267.742 190.309L267.74 190.307C265.307 189.658 263.263 188.895 261.868 188.033C261.375 187.731 260.967 187.415 260.648 187.09C260.637 187.08 260.626 187.068 260.617 187.057C260.561 187.001 260.511 186.942 260.461 186.883C261.166 185.625 261.661 182.817 262.016 179.277C262.055 178.886 262.094 178.486 262.128 178.078C262.184 177.465 262.231 176.833 262.279 176.187C262.435 174.023 262.552 171.702 262.645 169.367C262.821 164.756 262.89 160.086 262.941 156.451V156.448C262.969 154.527 262.989 152.894 263.017 151.711C263.039 150.804 263.045 150.016 263.036 149.373C262.91 141.51 261.996 133.677 261.442 125.794C260.598 113.708 310.169 116.239 310.169 116.239C313.907 119.108 315.161 123.341 316.186 127.998C316.203 128.076 316.22 128.154 316.237 128.233C316.55 129.665 316.846 131.135 317.188 132.621C317.227 132.791 317.269 132.965 317.311 133.135C317.344 133.277 317.381 133.423 317.414 133.566C317.418 133.575 317.418 133.58 317.42 133.589C317.434 133.644 317.448 133.697 317.462 133.754C317.593 134.277 317.73 134.802 317.878 135.325C317.945 135.552 318.01 135.775 318.079 136.002C318.37 136.952 318.701 137.9 319.089 138.837C319.242 138.988 319.388 139.151 319.528 139.318C319.793 139.634 320.039 139.978 320.263 140.348C321.161 141.81 321.751 143.664 322.117 145.733C322.579 148.348 322.686 151.301 322.599 154.243Z" fill="#FFA471"/>
<path d="M320.556 172.74C320.302 173.259 319.889 173.722 319.228 174.07C312.453 177.649 300.618 173.122 299.132 168.816C298.837 174.508 298.305 196.082 298.541 197.187C290.444 199.411 264.71 191.909 260.461 186.886C262.936 182.456 262.847 158.867 263.016 151.714L297.127 143.729C297.63 144.678 297.061 146.717 297.02 147.928C296.965 149.474 296.993 151.103 297.093 152.646C297.281 155.584 298.1 158.64 299.37 161.357C301.72 166.384 306.243 171.783 311.928 173.098C314.309 173.648 317.723 173.708 320.556 172.74Z" fill="#E07F4F"/>
<path d="M325.672 149.725C325.444 149.315 323.974 148.623 323.542 148.139C322.621 147.108 322.148 145.692 321.517 144.485C320.653 142.833 319.449 139.523 318.214 138.764L318.73 155.022C320.608 154.372 328.25 154.365 325.672 149.725Z" fill="#FFA471"/>
<path d="M320.264 140.349C320.186 140.421 320.105 140.483 320.021 140.536C319.795 140.681 319.548 140.771 319.286 140.793C318.726 140.838 318.181 140.572 317.723 140.088C317.086 139.417 316.624 138.323 316.514 137.057C316.472 136.559 316.489 136.076 316.559 135.628C316.685 134.781 316.99 134.057 317.415 133.567C317.418 133.576 317.418 133.581 317.42 133.59C317.434 133.645 317.448 133.698 317.462 133.755C317.594 134.278 317.731 134.803 317.879 135.326C317.946 135.553 318.011 135.776 318.08 136.003C318.371 136.953 318.701 137.901 319.089 138.838C319.243 138.989 319.389 139.152 319.528 139.319C319.794 139.635 320.041 139.979 320.264 140.349Z" fill="#121C26"/>
<path d="M317.879 135.326C317.423 135.396 316.976 135.5 316.559 135.629C315.438 135.973 314.54 136.504 314.308 137.136C314.601 135.321 315.729 133.791 317.311 133.137C317.345 133.279 317.381 133.425 317.415 133.568C317.418 133.577 317.418 133.582 317.42 133.591C317.434 133.646 317.448 133.7 317.462 133.756C317.593 134.277 317.731 134.803 317.879 135.326Z" fill="#121C26"/>
<path d="M318.987 129.012C317.861 127.867 314.859 127.541 312.988 128.793C310.996 129.875 308.487 132.724 308.842 133.628C309.011 134.368 314.135 133.361 315.381 133.039C316.603 132.635 322.03 132.232 318.987 129.012Z" fill="#49211C"/>
<path d="M260.695 111.804C265.107 98.8232 278.06 100.323 292.947 100.836C308.841 101.383 320.504 107.381 320.504 107.381C320.274 117.735 321.25 118.372 317.13 127.791C314.545 128.138 306.261 142.125 296.167 134.776C299.838 141.099 300.323 157.243 296.959 164.386C293.881 170.922 291.554 166.583 286.296 170.385C285.272 168.516 283.791 166.658 282.305 165.376C282.876 169.079 284.119 172.961 283.494 176.833C279.13 179.22 275.114 179.421 270.046 179.655C262.713 179.994 261.778 179.253 259.629 172.633C256.333 162.477 256.901 157.13 252.285 147.465C248.778 137.416 242.019 121.356 260.695 111.804Z" fill="#49211C"/>
<path d="M294.557 144.131L329.397 138.1L329.817 140.197L295.938 146.22L294.557 144.131Z" fill="#636363"/>
<path d="M289.426 143.555C293.896 138.428 299.12 144.892 301.197 147.447C301.197 147.447 301.147 156.356 298.745 158.417C295.837 160.911 291.62 158.53 289.76 156.003C287.291 152.647 286.078 147.396 289.426 143.555Z" fill="#FFA471"/>
<path d="M289.604 146.396C291.004 142.506 294.721 144.378 296.362 146.997C290.626 144.82 290.007 151.446 291.437 155.192C290.036 152.559 288.488 149.499 289.604 146.396Z" fill="#E07F4F"/>
<path d="M343.083 339.076C342.985 339.129 342.885 339.182 342.784 339.235C335.972 342.806 323.097 346.391 315.06 348.117C313.027 348.55 311.308 348.869 310.069 349.036C296.403 350.899 283.184 350.692 269.866 347.73C266.35 334.895 258.227 323.05 255.246 309.943C251.804 294.804 246.08 272.88 245.353 257.158C244.814 245.525 237.398 215.249 238.102 203.527C238.62 194.914 250.277 204.363 253.108 196.687L253.192 189.666C252.657 185.437 251.905 180.98 252.605 176.626C265.471 176.128 283.2 174.456 294.564 179.825C304.771 184.649 317.1 186.312 326.146 194.466C331.348 199.15 333.003 238.713 335.654 274.487C337.777 303.113 340.531 329.316 346.25 333.292C348.659 334.971 346.906 337.017 343.083 339.076Z" fill="#FF5821"/>
<path d="M342.784 339.234C335.972 342.806 323.097 346.39 315.06 348.116C312.761 330.242 319.23 303.85 315.869 290.931C312.378 277.53 311.277 265.926 309.158 252.344C308.235 246.423 309.289 234.072 308.99 228.116C308.775 223.857 309.862 218.623 308.428 214.722L322.97 250.515C324.122 259.707 331.037 266.681 335.654 274.489C337.777 303.115 340.531 329.317 346.25 333.294C346.936 333.771 348.586 336.229 342.784 339.234Z" fill="#D83A0F"/>
<path d="M309.492 176.029C310.878 167.492 305.081 159.448 296.544 158.063C288.007 156.677 279.963 162.475 278.577 171.012C277.192 179.549 282.989 187.592 291.526 188.978C300.063 190.363 308.107 184.566 309.492 176.029Z" fill="#212030"/>
<path d="M307.997 174.028C308.284 167.702 303.389 162.341 297.063 162.054C290.738 161.767 285.377 166.663 285.091 172.989C284.804 179.315 289.699 184.675 296.024 184.962C302.35 185.249 307.71 180.353 307.997 174.028Z" fill="#3C3C56"/>
<path d="M304.633 178.96C307.636 175.957 307.636 171.087 304.633 168.084C301.63 165.081 296.761 165.081 293.758 168.084C290.755 171.087 290.755 175.957 293.758 178.96C296.761 181.963 301.63 181.963 304.633 178.96Z" fill="#212030"/>
<path d="M299.759 170.538C287.064 174.578 266.728 171.627 254.577 166.727C254.633 169.186 254.035 174.53 254.178 176.969C260.389 179.701 266.873 179.995 273.752 180.325C280.889 180.668 294.125 178.804 300.597 175.851L299.759 170.538Z" fill="#8A8A8E"/>
<path d="M303.394 173.055C303.394 174.754 302.016 176.131 300.318 176.131C298.619 176.131 297.242 174.754 297.242 173.055C297.242 171.356 298.619 169.979 300.318 169.979C302.017 169.979 303.394 171.356 303.394 173.055Z" fill="#8A8A8E"/>
<path d="M359.442 287.966C359.215 288.154 358.986 288.338 358.751 288.517C355.141 291.277 350.449 292.717 341.358 285.656C340.337 284.865 339.263 283.967 338.131 282.952C330.902 276.484 324.887 263.431 319.325 255.825C318.687 254.952 318.05 254.052 317.416 253.121C308.285 239.76 299.661 220.663 299.893 204.6C299.991 197.83 301.54 192.696 308.076 190.843C312.471 189.595 320.732 184.665 331.389 201.592C331.389 201.592 348.829 238.065 356.93 263.783C360.712 275.79 362.459 285.455 359.442 287.966Z" fill="#FF5821"/>
<path d="M420.78 271.421C414.312 269.268 406.459 273.422 400.568 276.014L406.539 282.146C411.099 283.021 412.989 283.051 417.568 282.921C430.094 282.567 431.334 284.536 435.546 283.406C434.627 277.839 427.164 273.546 420.78 271.421Z" fill="#FFA471"/>
<path d="M411.432 283.486C410.895 284.608 398.68 287.7 386.664 290.351C376.673 292.552 366.815 294.448 363.927 294.647C355.15 295.246 346.548 292.013 341.358 285.656C338.665 282.359 336.889 278.226 336.481 273.349C336.45 273.011 336.428 272.667 336.414 272.321L347.558 263.9C350.734 263.215 353.777 263.274 356.931 263.783C368.091 265.578 380.644 273.019 405.515 273.226C405.515 273.226 412.685 280.86 411.432 283.486Z" fill="#FF5821"/>
<path d="M386.664 290.351C376.673 292.552 366.816 294.448 363.927 294.647C355.15 295.245 346.548 292.013 341.358 285.656C340.337 284.865 339.263 283.967 338.131 282.952C330.902 276.485 324.887 263.431 319.325 255.825C318.687 254.952 318.05 254.052 317.416 253.121C312.992 240.143 307.881 232.488 308.32 219.208C312.934 240.599 332.295 267.563 336.481 273.349C339.87 278.039 343.718 282.415 348.461 286.249C347.879 283.117 348.022 279.571 348.262 276.409C350.799 282.703 354.308 286.422 358.751 288.517C363.614 290.81 369.598 291.16 376.659 290.81C379.897 290.651 383.281 290.525 386.664 290.351Z" fill="#D83A0F"/>
<path d="M237.513 433.173C237.513 434.928 236.525 436.351 235.307 436.351H220.475C219.257 436.351 218.269 434.928 218.269 433.173C218.269 431.419 219.257 429.995 220.475 429.995H235.307C236.525 429.995 237.513 431.419 237.513 433.173Z" fill="#44283E"/>
<path d="M231.012 434.543C236.246 433.708 241.584 434.098 246.817 433.23C252.112 432.352 256.473 429.435 260.83 426.48C265.13 423.561 269.384 420.544 274.167 418.451C279.325 416.194 285.281 416.315 290.769 415.554C292.381 415.33 291.692 412.89 290.096 413.112C284.592 413.876 278.806 413.835 273.59 415.968C268.794 417.93 264.526 420.897 260.27 423.804C255.836 426.832 251.522 429.815 246.144 430.789C240.935 431.732 235.572 431.268 230.34 432.103C228.73 432.358 229.416 434.798 231.012 434.543Z" fill="#44283E"/>
<path d="M396.593 390.872V394.772C396.593 398.967 393.193 402.368 388.997 402.368H215.816C211.621 402.368 208.22 398.967 208.22 394.772V390.872C208.22 386.677 211.621 383.276 215.816 383.276H388.997C393.193 383.276 396.593 386.677 396.593 390.872Z" fill="#553D57"/>
<path d="M404.516 383.276V383.97C404.516 388.699 401.247 392.756 396.593 394.472V394.771C396.593 398.967 393.193 402.367 388.997 402.367H282.277C278.279 402.367 274.997 399.275 274.704 395.348C274.688 395.158 274.681 394.965 274.681 394.77V390.871C274.681 386.675 278.084 383.275 282.277 383.275L404.516 383.276Z" fill="#44283E"/>
<path d="M314.32 423.205H295.082L235.532 392.822H372.862L314.32 423.205Z" fill="#44283E"/>
<path d="M306.861 423.204H294.874L235.323 392.822H278.165L306.861 423.204Z" fill="#553D57"/>
<path d="M308.723 424.724H299.44V457.134H308.723V424.724Z" fill="#44283E"/>
<path opacity="0.7" d="M306.408 438.903H299.906V487.436H306.408V438.903Z" fill="#49363E"/>
<path d="M311.509 438.903H296.654V487.436H311.509V438.903Z" fill="#44283E"/>
<path d="M303.157 438.903H296.654V487.436H303.157V438.903Z" fill="#69698E"/>
<path d="M316.233 426.326C316.233 428.053 315.131 429.45 313.772 429.45H294.413C293.055 429.45 291.952 428.052 291.952 426.326C291.952 425.462 292.228 424.684 292.673 424.118C293.119 423.553 293.733 423.204 294.413 423.204H313.772C315.13 423.204 316.233 424.602 316.233 426.326Z" fill="#553D57"/>
<path d="M316.233 426.326C316.233 428.053 315.131 429.45 313.772 429.45H306.556C305.196 429.45 304.095 428.052 304.095 426.326C304.095 425.462 304.369 424.684 304.815 424.118C305.261 423.553 305.877 423.204 306.557 423.204H313.773C315.13 423.204 316.233 424.602 316.233 426.326Z" fill="#44283E"/>
<path d="M309.136 484.21V511.356C309.136 512.83 308.45 514.144 307.379 514.992C307.007 515.291 306.587 515.531 306.13 515.703C305.621 515.896 305.07 516 304.495 516C303.92 516 303.368 515.896 302.86 515.703C302.403 515.531 301.983 515.291 301.608 514.992C301.469 514.883 301.338 514.766 301.211 514.64C300.371 513.799 299.851 512.637 299.851 511.355V484.209C299.851 482.738 300.537 481.424 301.608 480.575C301.982 480.277 302.403 480.036 302.859 479.865C303.368 479.672 303.92 479.568 304.494 479.568C305.069 479.568 305.621 479.672 306.13 479.865C306.585 480.037 307.005 480.277 307.378 480.575C307.518 480.685 307.649 480.801 307.776 480.928C308.617 481.769 309.136 482.929 309.136 484.21Z" fill="#44283E"/>
<path d="M305.162 501.223C305.162 501.593 304.863 501.892 304.494 501.892C304.125 501.892 303.825 501.593 303.825 501.223V485.341C303.825 484.973 304.125 484.673 304.494 484.673C304.863 484.673 305.162 484.972 305.162 485.341V501.223Z" fill="#553D57"/>
<path d="M306.857 500.588H300.566V509.712H306.857V500.588Z" fill="#44283E"/>
<path d="M302.932 500.588H300.566V509.712H302.932V500.588Z" fill="#69698E"/>
<path d="M301.29 515.686C301.29 520.75 297.185 524.855 292.121 524.855C287.057 524.855 282.952 520.75 282.952 515.686C282.952 510.621 287.057 506.517 292.121 506.517C297.185 506.517 301.29 510.622 301.29 515.686Z" fill="#2D2D3F"/>
<path d="M296.706 515.685C296.706 518.218 294.653 520.271 292.121 520.271C289.59 520.271 287.537 518.218 287.537 515.685C287.537 513.153 289.589 511.101 292.121 511.101C294.654 511.101 296.706 513.154 296.706 515.685Z" fill="#1D1D28"/>
<path d="M307.997 512.627H281.433C281.723 507.908 287.555 504.144 294.713 504.144C295.712 504.144 296.685 504.216 297.623 504.357C303.394 505.212 307.746 508.566 307.997 512.627Z" fill="#69698E"/>
<path d="M307.997 512.626H287.249C287.503 508.566 291.856 505.211 297.623 504.356C303.394 505.211 307.746 508.566 307.997 512.626Z" fill="#44283E"/>
<path d="M225.456 499.399H219.163V508.524H225.456V499.399Z" fill="#44283E"/>
<path d="M221.531 499.399H219.163V508.524H221.531V499.399Z" fill="#49363E"/>
<path d="M219.889 514.497C219.889 519.562 215.784 523.666 210.72 523.666C205.656 523.666 201.551 519.561 201.551 514.497C201.551 509.433 205.656 505.328 210.72 505.328C215.784 505.328 219.889 509.433 219.889 514.497Z" fill="#2D2D3F"/>
<path d="M215.304 514.497C215.304 517.03 213.251 519.082 210.719 519.082C208.187 519.082 206.134 517.029 206.134 514.497C206.134 511.965 208.187 509.913 210.719 509.913C213.251 509.913 215.304 511.965 215.304 514.497Z" fill="#1D1D28"/>
<path d="M226.595 511.438H200.03C200.321 506.72 206.153 502.955 213.311 502.955C214.31 502.955 215.283 503.027 216.22 503.168C221.991 504.023 226.344 507.378 226.595 511.438Z" fill="#69698E"/>
<path d="M226.595 511.437H205.848C206.102 507.378 210.454 504.022 216.221 503.167C221.991 504.022 226.344 507.378 226.595 511.437Z" fill="#44283E"/>
<path d="M296.697 472.982C291.552 473.891 222.761 488.71 213.817 497.879C211.414 500.341 217.393 501.725 220.062 501.222L296.696 486.803V472.982H296.697Z" fill="#44283E"/>
<path d="M296.697 472.982L296.698 480.156C285.212 482.035 224.431 492.222 214.454 498.675C213.855 499.062 213.78 499.625 213.884 500.039C213.165 499.478 212.973 498.745 213.818 497.88C222.761 488.712 291.554 473.891 296.697 472.982Z" fill="#69698E"/>
<path d="M296.644 472.982V474.501C291.679 475.381 225.887 489.307 213.313 498.518C213.402 498.316 213.551 498.102 213.766 497.881C222.709 488.712 291.502 473.891 296.644 472.982Z" fill="#69698E"/>
<path d="M389.022 499.399H382.73V508.524H389.022V499.399Z" fill="#44283E"/>
<path d="M389.021 499.399H386.654V508.524H389.021V499.399Z" fill="#49363E"/>
<path d="M388.296 514.497C388.296 519.562 392.402 523.666 397.465 523.666C402.53 523.666 406.635 519.561 406.635 514.497C406.635 509.433 402.53 505.328 397.465 505.328C392.402 505.328 388.296 509.433 388.296 514.497Z" fill="#2D2D3F"/>
<path d="M392.88 514.497C392.88 517.03 394.934 519.082 397.465 519.082C399.997 519.082 402.05 517.029 402.05 514.497C402.05 511.965 399.997 509.913 397.465 509.913C394.934 509.913 392.88 511.965 392.88 514.497Z" fill="#1D1D28"/>
<path d="M381.591 511.438H408.154C407.864 506.72 402.032 502.955 394.874 502.955C393.874 502.955 392.902 503.027 391.963 503.168C386.193 504.023 381.84 507.378 381.591 511.438Z" fill="#69698E"/>
<path d="M381.591 511.437H402.337C402.084 507.378 397.731 504.022 391.964 503.167C386.193 504.022 381.84 507.378 381.591 511.437Z" fill="#44283E"/>
<path d="M311.488 472.982C316.633 473.891 385.424 488.71 394.367 497.879C396.77 500.341 390.792 501.725 388.123 501.222L311.488 486.803V472.982Z" fill="#44283E"/>
<path d="M311.488 472.982L311.487 480.156C322.973 482.035 383.754 492.222 393.731 498.675C394.329 499.062 394.404 499.625 394.3 500.039C395.019 499.478 395.212 498.745 394.366 497.88C385.424 488.712 316.631 473.891 311.488 472.982Z" fill="#69698E"/>
<path d="M311.541 472.982V474.501C316.506 475.381 382.298 489.307 394.872 498.518C394.783 498.316 394.634 498.102 394.419 497.881C385.476 488.712 316.683 473.891 311.541 472.982Z" fill="#69698E"/>
<path d="M377.652 302.436C374.844 300.719 368.945 300.41 365.747 300.41H309.188C311.093 305.375 312.638 310.505 314.244 315.602H367.139C367.162 315.606 367.185 315.614 367.208 315.619C367.208 315.619 367.208 315.619 367.21 315.619C367.22 315.624 367.228 315.63 367.238 315.637C367.24 315.634 367.243 315.637 367.246 315.642C367.405 315.769 367.57 315.906 367.691 316.027C367.694 316.03 367.697 316.034 367.697 316.034C367.709 316.053 367.72 316.07 367.732 316.088C367.848 316.268 367.955 316.453 368.057 316.642C368.059 316.645 368.059 316.645 368.059 316.648C368.18 317.025 368.284 317.404 368.37 317.792C368.37 317.794 368.37 317.794 368.37 317.794C368.436 319.012 368.391 320.243 368.391 321.458V371.316C368.391 375.456 371.847 378.912 375.987 378.912C376.602 378.912 377.199 378.836 377.774 378.689C381.076 377.872 383.582 374.841 383.582 371.316V318.688C383.582 312.176 383.278 305.879 377.652 302.436Z" fill="#553D57"/>
<path d="M367.319 315.552C367.264 315.483 367.236 315.448 367.228 315.435C367.236 315.438 367.276 315.486 367.332 315.554C367.329 315.552 367.324 315.552 367.319 315.552Z" fill="#553D57"/>
<path d="M367.365 315.61C367.365 315.607 367.363 315.607 367.363 315.604C367.367 315.604 367.37 315.604 367.375 315.607C367.378 315.61 367.38 315.614 367.383 315.617C367.377 315.614 367.37 315.613 367.365 315.61Z" fill="#553D57"/>
<path d="M367.522 315.799C367.487 315.757 367.456 315.721 367.431 315.687C367.433 315.689 367.438 315.688 367.443 315.691C367.471 315.727 367.499 315.765 367.527 315.803C367.524 315.799 367.522 315.799 367.522 315.799Z" fill="#553D57"/>
<path d="M372.89 308.006C370.084 306.29 363.362 305.98 360.161 305.98H311.178C312.246 309.168 313.232 312.392 314.244 315.602H367.139C367.162 315.607 367.185 315.614 367.208 315.62C367.208 315.62 367.208 315.62 367.21 315.62C367.22 315.625 367.228 315.63 367.238 315.638C367.24 315.635 367.243 315.638 367.246 315.643C367.405 315.77 367.57 315.906 367.691 316.028C367.694 316.031 367.697 316.035 367.697 316.035C367.709 316.053 367.72 316.071 367.732 316.089C367.848 316.268 367.955 316.454 368.057 316.643C368.059 316.646 368.059 316.646 368.059 316.648C368.18 317.026 368.284 317.405 368.37 317.793C368.37 317.795 368.37 317.795 368.37 317.795C368.436 319.013 368.391 320.243 368.391 321.458V371.316C368.391 375.456 371.847 378.913 375.987 378.913C376.602 378.913 377.199 378.837 377.774 378.69C377.923 378.11 377.999 377.508 377.999 376.888V324.26C377.999 317.746 378.519 311.45 372.89 308.006Z" fill="#44283E"/>
<path d="M370.358 304.904C376.766 304.997 379.678 310.858 379.537 316.615C379.506 317.84 381.405 317.837 381.435 316.615C381.52 313.178 380.775 309.582 378.562 306.86C376.52 304.347 373.573 303.052 370.358 303.005C369.133 302.987 369.134 304.886 370.358 304.904Z" fill="#717199"/>
<path d="M201.754 183.58C201.768 189.425 206.517 194.152 212.362 194.139L259.71 194.031C265.555 194.017 270.283 189.268 270.269 183.424L270.231 166.486C270.217 160.641 265.468 155.914 259.623 155.927L212.275 156.035C206.43 156.048 201.702 160.797 201.716 166.643L201.754 183.58Z" fill="#00B8D6"/>
<path opacity="0.2" d="M201.781 184.369C202.196 189.844 206.778 194.151 212.356 194.139L259.704 194.031C265.55 194.018 270.277 189.269 270.264 183.423L270.227 166.487C270.214 160.868 265.824 156.282 260.293 155.948C260.314 156.21 260.324 156.472 260.325 156.738L260.364 173.674C260.378 179.519 255.65 184.268 249.804 184.282L202.456 184.389C202.23 184.391 202.005 184.383 201.781 184.369Z" fill="#663445"/>
<path d="M327.792 347.207C327.462 354.569 327.974 364.265 325.927 371.991C325.661 372.995 325.354 373.965 324.993 374.894C324.974 374.955 324.949 375.017 324.923 375.078C324.772 375.464 321.19 395.869 321.016 396.238C304.09 396.448 281.459 396.851 260.883 397.027C249.269 397.124 238.311 397.15 229.402 397.027C216.592 396.851 208.013 396.364 207.808 395.346C202.512 395.346 197.951 390.66 197.459 384.527L196.759 375.799L196.544 373.103L182.98 204.043C182.932 203.461 182.923 202.888 182.952 202.323C183.223 196.666 187.096 192.033 192.191 191.624C193.371 191.121 197.993 190.394 203.692 189.661C206.254 189.334 209.03 189.004 211.811 188.691C218.558 187.933 250.168 187.164 269.041 188.389C269.044 188.386 269.044 188.386 269.047 188.389C272.405 188.604 275.361 188.886 277.702 189.242C293.797 191.68 301.27 200.902 304.029 217.188C304.121 217.748 304.219 218.307 304.314 218.87C305.148 223.741 305.995 228.61 306.856 233.484C307.226 235.561 307.595 237.639 307.967 239.72C309.586 248.735 311.255 257.771 312.966 266.834C313.241 268.299 313.52 269.765 313.797 271.233C313.911 271.831 314.032 272.435 314.157 273.036C317.605 289.621 324.993 306.019 326.713 322.772C327.023 325.817 327.309 328.893 327.518 331.984C327.865 337.042 328.016 342.139 327.792 347.207Z" fill="#00B8D6"/>
<path opacity="0.2" d="M299.202 362.678C297.67 366.456 295.044 369.521 291.604 371.99C266.795 389.795 199.716 376.498 196.759 375.799L196.544 373.103L182.98 204.043C182.932 203.461 182.923 202.888 182.952 202.323C184.8 201.814 186.668 201.252 188.528 200.687C193.066 199.302 197.563 197.89 201.684 197.142C202.607 196.971 203.513 196.837 204.394 196.742C218.628 195.221 232.358 196.619 246.345 197.438C258.565 198.154 273.067 198 283.097 205.992C293.296 214.118 293.324 228.662 294.962 240.228C298.726 266.774 301.746 294.872 301.718 322.405C301.705 334.673 303.71 351.563 299.202 362.678Z" fill="#663445"/>
<path d="M405.075 383.374V385.648C405.075 390.377 400.251 394.434 393.383 396.151C391.127 396.713 388.655 397.026 386.057 397.026H229.401C216.591 396.85 208.012 396.363 207.807 395.345C202.511 395.345 197.95 390.659 197.458 384.526L196.759 375.798L196.544 373.103C199.03 372.39 201.813 371.99 204.754 371.99H386.057C396.561 371.99 405.075 377.086 405.075 383.374Z" fill="#00B8D6"/>
<path d="M484.158 267.675C484.158 268.311 484.143 268.941 484.11 269.564C484.11 269.583 484.108 269.603 484.108 269.622C484.107 269.632 484.107 269.641 484.105 269.651C484.105 269.662 484.104 269.673 484.104 269.683C484.096 269.838 484.087 269.993 484.076 270.146C483.841 273.713 483.103 277.055 481.97 280.005C481.14 282.167 480.098 284.119 478.888 285.797C477.629 287.544 476.186 288.993 474.609 290.072H461.293C459.836 289.076 458.494 287.764 457.305 286.192C453.896 281.69 451.743 275.064 451.743 267.675C451.743 265.714 451.896 263.807 452.182 261.979H483.719C483.943 263.411 484.085 264.891 484.137 266.407C484.151 266.829 484.158 267.251 484.158 267.675Z" fill="#FF2E2E"/>
<path d="M484.089 269.459C484.039 269.254 484.116 269.816 484.107 269.604C484.098 269.393 484.042 269.953 484.084 269.74C484.155 269.386 483.96 269.941 484.105 269.68C484.136 269.625 484.172 269.573 484.208 269.521C484.35 269.315 484.013 269.758 484.183 269.559C484.301 269.42 484.434 269.295 484.569 269.174C484.632 269.116 484.698 269.062 484.764 269.008C485.001 268.812 484.544 269.171 484.798 268.981C484.953 268.865 485.115 268.756 485.278 268.65C485.666 268.396 486.072 268.17 486.482 267.955C486.89 267.743 487.307 267.551 487.729 267.369C487.486 267.474 487.841 267.325 487.86 267.317C487.969 267.273 488.077 267.231 488.186 267.19C488.437 267.094 488.691 267.004 488.946 266.919C489.365 266.779 489.789 266.657 490.217 266.551C490.415 266.503 490.616 266.46 490.816 266.421C490.912 266.403 491.008 266.387 491.103 266.371C491.336 266.333 490.86 266.395 491.227 266.356C492.155 266.258 492.783 266.386 493.661 266.703C494.04 266.84 493.458 266.604 493.819 266.769C493.93 266.82 494.037 266.877 494.144 266.934C494.352 267.046 494.549 267.178 494.742 267.316C494.535 267.167 494.831 267.395 494.848 267.41C494.934 267.485 495.016 267.565 495.097 267.645C495.178 267.724 495.253 267.809 495.327 267.895C495.42 268.007 495.425 268.01 495.345 267.905C495.39 267.965 495.434 268.026 495.476 268.088C495.605 268.273 495.715 268.47 495.818 268.67C495.832 268.696 495.977 269.036 495.875 268.784C495.919 268.89 495.954 268.998 495.989 269.107C496.062 269.327 496.112 269.554 496.156 269.782C496.227 270.159 496.134 269.531 496.174 269.918C496.19 270.078 496.194 270.24 496.198 270.401C496.215 271.296 495.889 272.409 495.512 273.204C494.617 275.099 493.1 276.289 491.209 277.271C490.232 277.778 489.407 278.088 488.294 278.45C487.245 278.792 486.175 279.068 485.102 279.319C483.608 279.668 482.03 279.883 480.599 280.448C479.721 280.796 478.955 281.252 478.408 282.042C477.808 282.908 477.951 284.014 478.343 284.922C479.152 286.792 481.112 287.244 482.877 286.48C483.565 286.182 484.214 285.499 484.364 284.751C484.581 283.656 483.97 282.806 483.104 282.209C482.541 281.822 481.716 282.103 481.391 282.659C481.026 283.28 481.279 283.986 481.839 284.372C482.143 284.581 481.679 284.218 481.92 284.44C482.145 284.648 481.791 284.226 481.944 284.455C482.093 284.679 481.862 284.184 481.934 284.424C481.845 284.129 481.917 284.209 481.912 284.354C481.926 283.972 481.852 284.361 481.996 284.034C481.962 284.113 481.817 284.305 482.043 284.011C481.999 284.069 481.946 284.119 481.893 284.169C481.747 284.308 482.127 284.021 481.833 284.203C481.763 284.246 481.688 284.281 481.614 284.316C481.924 284.169 481.67 284.285 481.596 284.308C481.513 284.334 481.429 284.352 481.344 284.37C481.048 284.431 481.633 284.346 481.331 284.366C481.244 284.371 481.157 284.367 481.069 284.362C480.769 284.347 481.353 284.419 481.059 284.354C480.988 284.338 480.721 284.231 481.032 284.366C480.958 284.334 480.655 284.116 480.916 284.326C480.844 284.268 480.783 284.199 480.722 284.13C480.921 284.356 480.735 284.115 480.703 284.055C480.648 283.956 480.597 283.856 480.548 283.754C480.671 284.015 480.551 283.73 480.535 283.678C480.512 283.606 480.46 283.3 480.51 283.666C480.499 283.587 480.499 283.507 480.5 283.427C480.502 283.151 480.439 283.725 480.495 283.463C480.567 283.134 480.405 283.611 480.497 283.428C480.53 283.364 480.571 283.304 480.612 283.245C480.411 283.536 480.546 283.34 480.609 283.274C480.662 283.219 480.722 283.17 480.781 283.12C480.513 283.346 480.721 283.172 480.787 283.128C480.93 283.034 481.082 282.955 481.235 282.88C481.292 282.853 481.574 282.735 481.266 282.862C481.381 282.814 481.497 282.773 481.614 282.731C483.109 282.204 484.734 281.983 486.273 281.612C488.489 281.078 490.686 280.379 492.707 279.309C494.701 278.253 496.49 276.709 497.559 274.699C498.63 272.687 499.129 270.184 498.248 268.011C497.377 265.855 495.466 264.414 493.197 263.978C491.33 263.62 489.497 264.053 487.738 264.693C486.271 265.226 484.8 265.894 483.533 266.818C482.485 267.583 481.319 268.688 481.673 270.125C482.06 271.693 484.476 271.028 484.089 269.459Z" fill="#FF2E2E"/>
<path d="M474.728 265.122C474.728 277.056 468.351 286.732 460.486 286.732C459.393 286.732 458.328 286.545 457.305 286.191C453.897 281.689 451.744 275.063 451.744 267.675C451.744 265.714 451.896 263.807 452.183 261.978H474.579C474.678 263.005 474.728 264.055 474.728 265.122Z" fill="#FF5555"/>
<path opacity="0.5" d="M454.514 266.411C453.761 269.139 454.332 272.168 455.085 274.831C455.483 276.238 456.003 277.606 456.59 278.945C457.038 279.966 457.547 280.979 458.198 281.888C458.665 282.54 459.473 282.851 460.214 282.417C460.859 282.039 461.212 281.055 460.743 280.401C460.139 279.557 459.665 278.624 459.235 277.682C459.184 277.57 459.134 277.456 459.085 277.344C459.051 277.267 459.018 277.19 458.985 277.112C459.051 277.269 459.051 277.269 458.986 277.11C458.852 276.786 458.727 276.458 458.605 276.129C458.368 275.488 458.157 274.837 457.965 274.181C457.77 273.516 457.604 272.844 457.462 272.166C457.398 271.855 457.341 271.542 457.29 271.228C457.281 271.17 457.203 270.613 457.247 270.959C457.225 270.785 457.207 270.611 457.19 270.437C457.128 269.816 457.11 269.19 457.136 268.567C457.142 268.45 457.15 268.333 457.159 268.216C457.165 268.136 457.233 267.624 457.173 268.042C457.215 267.756 457.277 267.474 457.355 267.196C457.568 266.422 457.099 265.596 456.325 265.383C455.552 265.169 454.727 265.637 454.514 266.411Z" fill="#FC8F35"/>
</svg>
