<svg width="158" height="35" viewBox="0 0 158 35" fill="none" xmlns="http://www.w3.org/2000/svg">
<path d="M11.3662 14H7.44629L4.90625 9.08691L3.87793 9.70215V14H0.388672V1.15039H3.87793V6.73145C4.02441 6.4502 4.19141 6.16895 4.37891 5.8877C4.57227 5.60645 4.75977 5.33984 4.94141 5.08789L7.63965 1.15039H11.4365L7.38477 6.90723L11.3662 14ZM32.3475 14L31.7146 11.5918H27.5398L26.8895 14H23.075L27.2674 1.09766H31.8992L36.1443 14H32.3475ZM30.9939 8.74414L30.4402 6.63477C30.3816 6.40625 30.2967 6.08105 30.1854 5.65918C30.074 5.23145 29.9627 4.79199 29.8514 4.34082C29.7459 3.88379 29.6639 3.50879 29.6053 3.21582C29.5525 3.50879 29.4764 3.87207 29.3768 4.30566C29.283 4.7334 29.1834 5.1582 29.0779 5.58008C28.9783 6.00195 28.8904 6.35352 28.8143 6.63477L28.2605 8.74414H30.9939ZM54.9107 14H51.4391V3.98926H48.3014V1.15039H58.0396V3.98926H54.9107V14ZM77.2455 14H73.7738V3.98926H70.6361V1.15039H80.3744V3.98926H77.2455V14ZM105.935 7.55762C105.935 8.54785 105.815 9.4502 105.574 10.2646C105.34 11.0732 104.971 11.7705 104.467 12.3564C103.963 12.9424 103.316 13.3936 102.525 13.71C101.734 14.0205 100.787 14.1758 99.6857 14.1758C98.6076 14.1758 97.673 14.0205 96.882 13.71C96.0969 13.3936 95.4494 12.9453 94.9397 12.3652C94.4299 11.7793 94.052 11.0791 93.8059 10.2646C93.5598 9.4502 93.4367 8.54199 93.4367 7.54004C93.4367 6.2041 93.6564 5.04395 94.0959 4.05957C94.5412 3.06934 95.2268 2.30469 96.1525 1.76562C97.0783 1.2207 98.2619 0.948242 99.7033 0.948242C101.168 0.948242 102.358 1.2207 103.272 1.76562C104.192 2.31055 104.865 3.07812 105.293 4.06836C105.721 5.05859 105.935 6.22168 105.935 7.55762ZM97.093 7.55762C97.093 8.33105 97.1809 8.99609 97.3566 9.55273C97.5324 10.1094 97.8107 10.5371 98.1916 10.8359C98.5725 11.1348 99.0705 11.2842 99.6857 11.2842C100.324 11.2842 100.831 11.1348 101.206 10.8359C101.587 10.5371 101.86 10.1094 102.024 9.55273C102.194 8.99609 102.279 8.33105 102.279 7.55762C102.279 6.39746 102.085 5.48047 101.698 4.80664C101.312 4.13281 100.647 3.7959 99.7033 3.7959C99.0764 3.7959 98.5695 3.94824 98.1828 4.25293C97.802 4.55762 97.5236 4.99121 97.3479 5.55371C97.1779 6.11621 97.093 6.78418 97.093 7.55762ZM131.979 7.55762C131.979 8.54785 131.858 9.4502 131.618 10.2646C131.384 11.0732 131.015 11.7705 130.511 12.3564C130.007 12.9424 129.359 13.3936 128.568 13.71C127.777 14.0205 126.831 14.1758 125.729 14.1758C124.651 14.1758 123.717 14.0205 122.926 13.71C122.141 13.3936 121.493 12.9453 120.983 12.3652C120.474 11.7793 120.096 11.0791 119.85 10.2646C119.604 9.4502 119.48 8.54199 119.48 7.54004C119.48 6.2041 119.7 5.04395 120.14 4.05957C120.585 3.06934 121.271 2.30469 122.196 1.76562C123.122 1.2207 124.306 0.948242 125.747 0.948242C127.212 0.948242 128.401 1.2207 129.315 1.76562C130.235 2.31055 130.909 3.07812 131.337 4.06836C131.765 5.05859 131.979 6.22168 131.979 7.55762ZM123.137 7.55762C123.137 8.33105 123.225 8.99609 123.4 9.55273C123.576 10.1094 123.854 10.5371 124.235 10.8359C124.616 11.1348 125.114 11.2842 125.729 11.2842C126.368 11.2842 126.875 11.1348 127.25 10.8359C127.631 10.5371 127.903 10.1094 128.067 9.55273C128.237 8.99609 128.322 8.33105 128.322 7.55762C128.322 6.39746 128.129 5.48047 127.742 4.80664C127.355 4.13281 126.69 3.7959 125.747 3.7959C125.12 3.7959 124.613 3.94824 124.227 4.25293C123.846 4.55762 123.567 4.99121 123.392 5.55371C123.222 6.11621 123.137 6.78418 123.137 7.55762ZM150.209 1.15039C151.375 1.15039 152.345 1.29395 153.118 1.58105C153.891 1.8623 154.471 2.28418 154.858 2.84668C155.251 3.40918 155.447 4.10938 155.447 4.94727C155.447 5.46875 155.359 5.94336 155.183 6.37109C155.008 6.79883 154.756 7.18262 154.428 7.52246C154.105 7.85645 153.719 8.14941 153.267 8.40137L157.012 14H153.074L150.349 9.32422H149.471V14H145.999V1.15039H150.209ZM150.156 3.77832H149.471V6.71387H150.121C150.654 6.71387 151.091 6.59668 151.43 6.3623C151.77 6.12793 151.94 5.70898 151.94 5.10547C151.94 4.68945 151.8 4.36426 151.518 4.12988C151.237 3.89551 150.783 3.77832 150.156 3.77832ZM9.45898 34H8.36035L3.38574 27.2236L1.71582 28.832V34H0.810547V21.1504H1.71582V27.9092C1.93262 27.6631 2.1582 27.417 2.39258 27.1709C2.63281 26.9189 2.87305 26.6641 3.11328 26.4062L8.18457 21.1504H9.30957L4.05371 26.5908L9.45898 34ZM21.6354 21.1504V29.4648C21.6354 30.4668 21.442 31.3193 21.0553 32.0225C20.6686 32.7197 20.1119 33.2529 19.3854 33.6221C18.6646 33.9912 17.8004 34.1758 16.7926 34.1758C15.2633 34.1758 14.0885 33.7627 13.2682 32.9365C12.4479 32.1045 12.0377 30.9355 12.0377 29.4297V21.1504H12.9342V29.4297C12.9342 30.7188 13.2682 31.7002 13.9361 32.374C14.61 33.042 15.5768 33.376 16.8365 33.376C17.6627 33.376 18.3658 33.2295 18.9459 32.9365C19.526 32.6377 19.9684 32.2041 20.273 31.6357C20.5777 31.0615 20.7301 30.3672 20.7301 29.5527V21.1504H21.6354ZM35.798 27.4521C35.798 28.8877 35.5432 30.0918 35.0334 31.0645C34.5295 32.0371 33.7795 32.7695 32.7834 33.2617C31.7932 33.7539 30.5656 34 29.1008 34H26.0246V21.1504H29.5051C30.8762 21.1504 32.0275 21.3906 32.9592 21.8711C33.8908 22.3516 34.5969 23.0605 35.0773 23.998C35.5578 24.9297 35.798 26.0811 35.798 27.4521ZM34.8488 27.4873C34.8488 26.2627 34.6496 25.2402 34.2512 24.4199C33.8527 23.5996 33.2434 22.9844 32.423 22.5742C31.6027 22.1582 30.5627 21.9502 29.3029 21.9502H26.9299V33.2002H29.0568C30.9963 33.2002 32.4465 32.7256 33.4074 31.7764C34.3684 30.8213 34.8488 29.3916 34.8488 27.4873ZM49.0994 21.1504V29.4648C49.0994 30.4668 48.9061 31.3193 48.5193 32.0225C48.1326 32.7197 47.576 33.2529 46.8494 33.6221C46.1287 33.9912 45.2645 34.1758 44.2566 34.1758C42.7273 34.1758 41.5525 33.7627 40.7322 32.9365C39.9119 32.1045 39.5018 30.9355 39.5018 29.4297V21.1504H40.3982V29.4297C40.3982 30.7188 40.7322 31.7002 41.4002 32.374C42.074 33.042 43.0408 33.376 44.3006 33.376C45.1268 33.376 45.8299 33.2295 46.41 32.9365C46.99 32.6377 47.4324 32.2041 47.7371 31.6357C48.0418 31.0615 48.1941 30.3672 48.1941 29.5527V21.1504H49.0994ZM59.0521 34L54.3324 22.1348H54.2885C54.3002 22.3516 54.309 22.5801 54.3148 22.8203C54.3266 23.0547 54.3354 23.3008 54.3412 23.5586C54.3471 23.8164 54.35 24.0859 54.35 24.3672V34H53.4887V21.1504H54.8598L59.4125 32.5938H59.4652L64.0531 21.1504H65.3891V34H64.5014V24.2617C64.5014 24.0332 64.5043 23.7988 64.5102 23.5586C64.516 23.3184 64.5219 23.0811 64.5277 22.8467C64.5395 22.6064 64.5512 22.375 64.5629 22.1523H64.5102L59.7729 34H59.0521ZM69.9277 21.1504H73.4521C75.04 21.1504 76.2002 21.3994 76.9326 21.8975C77.6709 22.3955 78.04 23.1895 78.04 24.2793C78.04 24.7715 77.9434 25.2197 77.75 25.624C77.5625 26.0283 77.2812 26.3682 76.9062 26.6436C76.5371 26.9131 76.0801 27.0977 75.5352 27.1973V27.2588C76.1855 27.3584 76.7217 27.54 77.1436 27.8037C77.5713 28.0615 77.8877 28.4043 78.0928 28.832C78.3037 29.2539 78.4092 29.7578 78.4092 30.3438C78.4092 31.1875 78.2158 31.8789 77.8291 32.418C77.4482 32.957 76.918 33.3555 76.2383 33.6133C75.5586 33.8711 74.7734 34 73.8828 34H69.9277V21.1504ZM70.833 26.8633H73.6807C74.8877 26.8633 75.7607 26.6523 76.2998 26.2305C76.8389 25.8086 77.1084 25.1846 77.1084 24.3584C77.1084 23.5029 76.8184 22.8877 76.2383 22.5127C75.6582 22.1377 74.7295 21.9502 73.4521 21.9502H70.833V26.8633ZM70.833 27.6543V33.2002H73.8564C75.0459 33.2002 75.9424 32.96 76.5459 32.4795C77.1494 31.9932 77.4512 31.2695 77.4512 30.3086C77.4512 29.6758 77.3105 29.166 77.0293 28.7793C76.748 28.3867 76.3262 28.1025 75.7637 27.9268C75.207 27.7451 74.5127 27.6543 73.6807 27.6543H70.833ZM90.1549 34L88.4059 29.4561H83.0094L81.2252 34H80.3023L85.3561 21.1064H86.1822L91.1041 34H90.1549ZM88.1158 28.6387L86.3404 23.8223C86.2936 23.6992 86.235 23.541 86.1646 23.3477C86.1002 23.1543 86.0299 22.9492 85.9537 22.7324C85.8834 22.5156 85.8131 22.3105 85.7428 22.1172C85.6842 22.3223 85.6197 22.5273 85.5494 22.7324C85.4791 22.9375 85.4117 23.1367 85.3473 23.3301C85.2828 23.5176 85.2213 23.6875 85.1627 23.8398L83.317 28.6387H88.1158ZM96.7678 28.1641L100.521 21.1504H101.514L97.2336 29.0342V34H96.3283V29.1045L92.0129 21.1504H93.0148L96.7678 28.1641ZM115.044 27.5576C115.044 28.5361 114.924 29.4297 114.683 30.2383C114.443 31.0469 114.083 31.7441 113.602 32.3301C113.122 32.916 112.521 33.3701 111.801 33.6924C111.086 34.0146 110.251 34.1758 109.296 34.1758C108.335 34.1758 107.494 34.0146 106.773 33.6924C106.053 33.3701 105.452 32.916 104.971 32.3301C104.497 31.7383 104.139 31.0381 103.899 30.2295C103.659 29.415 103.539 28.5186 103.539 27.54C103.539 26.2393 103.759 25.0938 104.198 24.1035C104.643 23.1133 105.297 22.3398 106.158 21.7832C107.025 21.2266 108.095 20.9482 109.366 20.9482C110.585 20.9482 111.616 21.2148 112.46 21.748C113.309 22.2754 113.951 23.0342 114.385 24.0244C114.824 25.0088 115.044 26.1865 115.044 27.5576ZM104.488 27.5488C104.488 28.6973 104.661 29.7109 105.007 30.5898C105.352 31.4629 105.883 32.1455 106.597 32.6377C107.312 33.1299 108.215 33.376 109.304 33.376C110.406 33.376 111.311 33.1328 112.02 32.6465C112.729 32.1602 113.254 31.4805 113.594 30.6074C113.933 29.7344 114.103 28.7178 114.103 27.5576C114.103 25.7236 113.702 24.2998 112.899 23.2861C112.102 22.2725 110.925 21.7656 109.366 21.7656C108.27 21.7656 107.359 22.0088 106.633 22.4951C105.912 22.9814 105.373 23.6582 105.015 24.5254C104.664 25.3926 104.488 26.4004 104.488 27.5488ZM123.968 27.5137H128.688V33.4111C128.073 33.6689 127.416 33.8623 126.719 33.9912C126.022 34.1143 125.281 34.1758 124.496 34.1758C123.13 34.1758 121.979 33.918 121.041 33.4023C120.11 32.8809 119.404 32.1279 118.923 31.1436C118.443 30.1592 118.203 28.9756 118.203 27.5928C118.203 26.3037 118.463 25.1582 118.985 24.1562C119.512 23.1543 120.265 22.3691 121.244 21.8008C122.222 21.2324 123.394 20.9482 124.759 20.9482C125.462 20.9482 126.124 21.0127 126.746 21.1416C127.372 21.2705 127.967 21.4639 128.53 21.7217L128.169 22.5303C127.613 22.2725 127.044 22.0791 126.464 21.9502C125.89 21.8213 125.307 21.7568 124.715 21.7568C123.555 21.7568 122.556 22.0059 121.718 22.5039C120.886 22.9961 120.247 23.6816 119.802 24.5605C119.363 25.4336 119.143 26.4414 119.143 27.584C119.143 28.8789 119.357 29.9541 119.785 30.8096C120.212 31.665 120.836 32.3066 121.657 32.7344C122.483 33.1621 123.485 33.376 124.662 33.376C125.307 33.376 125.884 33.3291 126.394 33.2354C126.91 33.1416 127.375 33.0186 127.791 32.8662V28.3398H123.968V27.5137ZM140.864 34L139.115 29.4561H133.719L131.935 34H131.012L136.065 21.1064H136.892L141.813 34H140.864ZM138.825 28.6387L137.05 23.8223C137.003 23.6992 136.944 23.541 136.874 23.3477C136.81 23.1543 136.739 22.9492 136.663 22.7324C136.593 22.5156 136.522 22.3105 136.452 22.1172C136.394 22.3223 136.329 22.5273 136.259 22.7324C136.188 22.9375 136.121 23.1367 136.057 23.3301C135.992 23.5176 135.931 23.6875 135.872 23.8398L134.026 28.6387H138.825ZM150.096 34L145.377 22.1348H145.333C145.344 22.3516 145.353 22.5801 145.359 22.8203C145.371 23.0547 145.379 23.3008 145.385 23.5586C145.391 23.8164 145.394 24.0859 145.394 24.3672V34H144.533V21.1504H145.904L150.457 32.5938H150.509L155.097 21.1504H156.433V34H155.546V24.2617C155.546 24.0332 155.548 23.7988 155.554 23.5586C155.56 23.3184 155.566 23.0811 155.572 22.8467C155.584 22.6064 155.595 22.375 155.607 22.1523H155.554L150.817 34H150.096Z" fill="#8499E0"/>
</svg>
